<?xml version="1.0" standalone="no"?>
<!DOCTYPE svg PUBLIC "-//W3C//DTD SVG 20010904//EN"
 "http://www.w3.org/TR/2001/REC-SVG-20010904/DTD/svg10.dtd">
<svg version="1.0" xmlns="http://www.w3.org/2000/svg"
 width="600.000000pt" height="600.000000pt" viewBox="0 0 600.000000 600.000000"
 preserveAspectRatio="xMidYMid meet">
<g transform="translate(0.000000,600.000000) scale(0.100000,-0.100000)"
fill="#000000" stroke="none">
<path d="M1323 4134 c-21 -16 -37 -18 -28 -4 3 6 -1 7 -9 4 -9 -3 -13 -10 -10
-15 3 -5 -4 -9 -16 -9 -12 0 -18 -4 -15 -11 4 -6 1 -9 -6 -7 -21 4 -71 -33
-65 -49 4 -9 -2 -8 -21 4 -14 10 -33 19 -42 21 -44 10 -216 4 -216 -8 0 -1 -8
-3 -17 -5 -10 -2 -32 -13 -49 -26 -19 -13 -29 -17 -25 -8 4 7 -2 3 -13 -11
-11 -14 -21 -29 -21 -34 0 -4 -7 -6 -14 -3 -11 4 -13 1 -9 -10 5 -12 3 -14 -7
-8 -8 5 -11 4 -6 -3 3 -6 2 -13 -4 -17 -6 -4 -8 -11 -5 -16 4 -5 1 -9 -4 -9
-6 0 -11 -7 -11 -16 0 -11 -5 -14 -16 -10 -12 5 -14 1 -9 -15 8 -24 -10 -49
-35 -49 -10 0 -28 -12 -39 -26 -11 -14 -25 -23 -30 -20 -5 4 -13 1 -17 -5 -5
-8 -2 -10 7 -4 8 4 1 -4 -15 -17 -18 -15 -26 -29 -22 -37 4 -6 4 -10 -1 -9 -4
2 -9 -2 -11 -7 -2 -6 -12 -24 -23 -41 -21 -34 -24 -48 -9 -39 5 3 3 -7 -5 -22
-8 -15 -15 -37 -15 -49 0 -36 -21 -84 -37 -84 -8 0 -12 -4 -9 -9 4 -5 3 -11
-2 -13 -11 -4 -48 -86 -62 -138 -7 -28 -9 -64 -4 -99 4 -31 6 -66 5 -77 -1
-12 5 -24 14 -28 9 -3 14 -10 11 -15 -3 -5 1 -14 9 -21 8 -7 15 -19 15 -27 0
-8 5 -11 10 -8 6 3 11 1 11 -4 1 -6 2 -17 3 -23 1 -7 7 -12 14 -11 7 2 12 -4
12 -12 0 -9 6 -18 14 -21 10 -4 11 -15 5 -47 -12 -61 -11 -106 1 -87 8 12 9
10 8 -10 -2 -27 19 -98 34 -117 6 -7 14 -10 19 -7 5 3 5 -6 0 -19 -8 -20 -6
-24 6 -23 9 0 17 -7 19 -17 1 -11 6 -22 10 -25 4 -4 4 1 1 11 -4 11 -3 16 3
12 6 -3 10 -12 10 -20 0 -8 5 -17 12 -21 7 -5 8 -3 3 6 -4 7 6 2 24 -11 17
-12 31 -27 31 -31 0 -5 5 -6 10 -3 16 10 34 -6 19 -17 -9 -5 -4 -6 14 -2 21 5
26 3 22 -8 -6 -14 34 -56 74 -78 12 -6 19 -15 16 -21 -4 -5 -3 -9 2 -8 4 1 26
-6 47 -15 88 -39 231 -36 312 7 17 9 35 13 39 9 3 -4 6 -2 5 3 -5 21 1 25 20
15 12 -7 18 -16 13 -23 -4 -7 2 -5 12 3 10 8 16 10 12 4 -11 -19 90 -47 167
-46 39 0 78 2 86 5 64 18 107 42 186 107 7 5 15 6 18 3 3 -4 7 -1 7 5 3 24 4
28 28 67 25 41 27 45 29 79 1 12 7 16 18 12 8 -3 12 -2 9 4 -3 6 2 10 13 10
10 0 28 9 40 20 12 12 22 18 22 15 0 -3 12 5 27 19 15 14 31 22 36 19 6 -3 7
-1 3 5 -4 7 -2 12 5 12 7 0 10 3 6 6 -6 6 4 21 37 54 11 11 15 20 9 20 -8 0
-8 7 0 24 7 13 14 23 17 21 3 -2 5 45 5 103 0 100 -3 111 -32 171 -29 58 -31
67 -18 90 21 42 28 113 15 162 -7 24 -14 55 -16 68 -1 13 -8 29 -15 35 -9 8
-10 7 -5 -4 4 -8 1 -6 -6 4 -7 11 -28 35 -45 55 -29 31 -33 42 -33 92 0 32 -5
61 -10 64 -6 4 -8 15 -5 26 4 10 2 19 -3 19 -5 0 -15 13 -22 29 -14 36 -100
116 -119 112 -7 -1 -10 2 -6 9 3 6 3 10 -2 9 -20 -4 -92 14 -87 22 3 5 0 9 -5
9 -6 0 -11 7 -11 16 0 9 -9 27 -20 41 -11 14 -20 32 -20 39 0 7 -5 16 -12 20
-7 5 -9 2 -4 -7 4 -8 0 -5 -8 5 -9 11 -16 16 -16 10 0 -5 -5 -1 -11 8 -6 11
-16 15 -26 11 -10 -4 -14 -2 -10 4 4 6 -11 15 -36 21 -115 30 -115 30 -134 16z
m163 -52 c61 -31 124 -111 124 -157 0 -9 9 -15 25 -15 27 0 90 -23 111 -41 7
-6 10 -17 7 -25 -4 -12 -8 -12 -22 -2 -9 7 -13 8 -9 4 4 -5 3 -15 -3 -23 -13
-15 -13 -15 18 -18 12 -1 20 3 17 9 -2 6 1 18 6 26 9 13 15 9 40 -20 41 -47
70 -129 70 -195 0 -30 5 -57 10 -60 6 -4 7 -11 4 -17 -5 -7 -2 -8 6 -3 16 10
56 -36 82 -93 29 -64 25 -177 -8 -227 -12 -18 -11 -25 11 -58 98 -144 48 -376
-100 -463 -24 -14 -53 -26 -64 -27 -14 -1 -24 -12 -32 -37 -21 -64 -46 -104
-95 -153 -31 -30 -55 -46 -66 -43 -10 2 -16 -1 -15 -6 1 -6 -23 -19 -53 -30
-74 -26 -178 -21 -246 13 -27 13 -49 29 -49 36 0 7 -6 17 -12 23 -7 5 -11 7
-8 4 9 -13 -68 -64 -118 -79 -65 -19 -161 -19 -218 0 -51 17 -122 72 -113 86
3 5 1 8 -4 7 -5 -2 -22 11 -38 27 -16 17 -44 38 -62 47 -19 10 -31 22 -27 28
3 5 0 7 -8 4 -19 -7 -81 66 -114 136 -21 44 -27 72 -28 137 -2 79 -3 83 -40
125 -55 63 -77 120 -82 213 -6 97 17 170 76 236 33 39 39 52 43 105 7 102 71
197 164 243 24 12 44 29 44 37 0 53 95 159 175 195 67 31 182 32 240 4 22 -11
40 -26 40 -34 0 -8 7 -16 15 -18 12 -4 12 -3 1 5 -22 16 52 89 108 107 59 19
146 13 197 -13z m254 -262 c0 -5 -5 -10 -11 -10 -5 0 -7 5 -4 10 3 6 8 10 11
10 2 0 4 -4 4 -10z"/>
<path d="M1353 4093 c9 -2 25 -2 35 0 9 3 1 5 -18 5 -19 0 -27 -2 -17 -5z"/>
<path d="M1241 4057 c-8 -10 -7 -14 2 -14 8 0 14 6 14 14 0 7 -1 13 -2 13 -2
0 -8 -6 -14 -13z"/>
<path d="M1470 4056 c-6 -8 -18 -12 -26 -9 -8 3 -14 3 -14 0 0 -15 31 -13 46
4 9 10 15 19 12 19 -3 0 -11 -6 -18 -14z"/>
<path d="M1305 4050 c-3 -6 1 -7 9 -4 18 7 21 14 7 14 -6 0 -13 -4 -16 -10z"/>
<path d="M1346 4035 c-11 -8 -15 -15 -9 -15 6 0 16 7 23 15 16 19 11 19 -14 0z"/>
<path d="M1055 4030 c-3 -6 1 -7 9 -4 18 7 21 14 7 14 -6 0 -13 -4 -16 -10z"/>
<path d="M1095 4020 c-4 -6 1 -7 12 -4 16 5 16 4 -1 -10 -11 -9 -14 -16 -7
-16 7 0 9 -5 5 -11 -5 -8 -1 -8 14 0 16 8 23 7 33 -6 12 -15 12 -16 -6 -9 -15
5 -17 4 -8 -5 19 -19 37 0 19 20 -9 10 -14 21 -11 24 3 4 -1 3 -7 -3 -18 -15
-32 -12 -19 3 11 13 6 27 -10 27 -4 0 -11 -4 -14 -10z"/>
<path d="M1199 4013 c-13 -16 -12 -17 4 -4 9 7 17 15 17 17 0 8 -8 3 -21 -13z"/>
<path d="M1398 4023 c7 -3 16 -2 19 1 4 3 -2 6 -13 5 -11 0 -14 -3 -6 -6z"/>
<path d="M875 4010 c-3 -6 1 -7 9 -4 18 7 21 14 7 14 -6 0 -13 -4 -16 -10z"/>
<path d="M1298 3986 c-35 -24 -51 -23 -28 0 7 7 6 11 -4 11 -8 0 -13 -4 -10
-8 2 -4 -4 -15 -13 -25 -14 -13 -14 -16 -3 -12 13 5 15 -47 12 -436 -1 -242
-1 -499 0 -569 l3 -128 41 30 c23 16 45 28 48 25 3 -2 3 0 -1 6 -5 5 -6 70 -3
144 l5 135 53 54 52 53 0 77 c0 78 0 78 -40 116 -34 33 -40 44 -40 80 0 24 8
56 17 72 17 29 84 69 116 69 23 0 67 -22 62 -30 -3 -4 5 -16 18 -26 l22 -19
-19 23 c-11 12 -14 22 -7 22 20 0 51 -63 51 -105 0 -46 -29 -100 -59 -110 -20
-6 -21 -14 -21 -113 l0 -107 -60 -56 -60 -56 0 -130 c0 -109 -3 -133 -17 -144
-9 -8 -18 -13 -20 -11 -3 2 -8 0 -11 -4 -4 -4 -1 -4 6 0 6 4 12 3 12 -1 0 -5
-31 -28 -69 -51 -92 -57 -95 -61 -83 -119 6 -26 14 -57 18 -67 5 -13 4 -17 -4
-12 -8 5 -10 2 -5 -9 4 -11 8 -13 13 -6 4 8 13 5 24 -8 27 -30 92 -50 173 -53
40 -2 68 -1 62 2 -5 4 7 14 27 24 44 20 57 14 17 -9 -15 -9 -19 -13 -8 -9 11
3 25 7 31 7 7 0 11 7 9 16 -1 9 9 30 23 46 62 74 80 176 42 249 -15 30 -17 44
-9 60 9 19 9 19 -4 4 -13 -17 -17 -17 -58 5 -53 26 -60 36 -53 62 16 53 65 51
142 -5 42 -30 92 -112 92 -149 0 -19 3 -19 28 -9 111 47 154 209 87 325 -21
34 -24 45 -12 40 9 -3 19 -1 23 6 4 7 4 9 -1 5 -4 -4 -16 -3 -26 3 -14 7 -19
7 -17 -2 6 -24 -105 -39 -143 -19 -26 14 -26 66 0 80 11 5 36 10 56 10 51 0
94 25 111 65 19 46 17 72 -8 125 -12 25 -22 49 -22 55 -1 5 -8 10 -16 10 -8 0
-30 8 -48 18 -32 17 -32 18 -26 71 8 70 -1 115 -31 161 -14 20 -23 40 -20 45
3 4 -3 14 -13 21 -15 13 -16 12 -3 -3 17 -23 9 -23 -30 1 -17 10 -27 21 -22
23 4 3 2 3 -6 1 -8 -2 -18 2 -23 9 -6 11 -8 10 -8 0 0 -7 -5 -10 -12 -6 -7 4
-8 3 -4 -5 4 -6 12 -9 17 -6 17 11 9 -12 -10 -29 -25 -22 -69 -12 -76 18 -2
11 -6 44 -8 71 -2 28 -7 59 -12 69 -6 15 -5 17 5 11 9 -6 11 -4 6 4 -5 7 -10
10 -13 7 -3 -3 -19 4 -36 16 -18 13 -51 23 -81 26 -42 3 -57 -1 -88 -22z m56
-8 c-6 -10 -4 -10 7 -3 21 15 89 3 89 -17 0 -5 4 -7 9 -4 11 7 45 -69 37 -83
-10 -16 13 -91 30 -98 13 -5 13 -7 2 -14 -8 -6 0 -9 24 -9 20 0 40 5 43 10 4
6 11 8 16 5 5 -4 12 1 15 10 5 11 10 13 19 5 6 -5 15 -7 18 -3 4 3 7 1 7 -5 0
-7 7 -12 15 -12 8 0 15 -5 15 -12 0 -6 10 -22 23 -36 19 -21 22 -34 22 -110 1
-71 4 -91 20 -109 10 -12 23 -19 28 -16 5 3 19 -6 32 -21 12 -14 26 -22 30
-18 5 4 5 1 1 -6 -4 -7 -2 -20 6 -29 7 -10 8 -14 1 -10 -7 5 -9 0 -6 -13 3
-11 9 -17 14 -14 5 3 4 -7 -1 -21 -6 -15 -8 -30 -6 -33 8 -14 -23 -44 -39 -38
-9 3 -14 2 -10 -3 5 -9 -41 -24 -61 -20 -21 4 -41 -2 -60 -17 -10 -8 -12 -12
-4 -8 12 6 13 4 3 -7 -14 -14 -17 -57 -5 -76 15 -24 72 -40 119 -33 38 6 49 4
65 -12 11 -11 17 -26 14 -33 -3 -8 -1 -17 5 -21 6 -3 9 -31 8 -63 -4 -101 -77
-206 -104 -147 -5 11 -14 24 -20 28 -5 4 -6 8 -1 8 5 0 -1 12 -15 27 -13 14
-18 23 -10 18 9 -5 12 -4 7 3 -4 7 -13 12 -19 12 -7 0 -23 12 -37 27 -26 27
-79 54 -118 58 -12 1 -21 0 -18 -2 8 -8 -18 -31 -28 -25 -5 3 -6 0 -2 -6 3 -6
2 -13 -3 -16 -15 -10 -6 -68 14 -82 10 -8 29 -14 42 -14 13 0 22 -4 20 -9 -1
-4 7 -17 18 -27 12 -11 16 -17 10 -14 -6 3 -2 -3 9 -13 15 -14 20 -32 21 -75
1 -58 -8 -85 -35 -110 -13 -12 -13 -13 0 -7 9 4 7 0 -4 -9 -10 -8 -15 -19 -12
-25 4 -5 1 -13 -5 -17 -8 -5 -10 -2 -5 7 4 8 1 6 -8 -5 -8 -10 -20 -15 -27
-10 -7 4 -10 3 -6 -3 3 -5 -10 -17 -29 -26 -40 -19 -48 -21 -39 -7 3 5 -9 3
-27 -4 -35 -14 -62 -11 -52 6 4 6 -2 6 -14 -1 -25 -13 -35 -14 -28 -2 5 7 -20
20 -47 25 -14 2 -56 59 -51 68 3 4 1 15 -4 25 -15 26 5 65 44 90 19 13 32 18
28 12 -3 -6 3 -5 14 2 12 7 18 17 15 23 -4 5 1 7 11 3 10 -4 15 -3 11 3 -3 6
2 10 11 10 10 0 14 3 11 7 -4 3 2 16 13 28 16 17 20 39 24 140 3 66 7 127 8
135 2 9 23 33 46 55 59 54 71 87 67 180 -3 76 -2 78 31 109 40 37 53 75 48
134 -7 78 -58 122 -149 127 -47 3 -94 -17 -116 -48 -3 -5 -10 -8 -14 -8 -10 2
-16 -18 -22 -82 -5 -49 11 -107 29 -107 6 0 8 -7 5 -14 -4 -10 -1 -13 7 -10 7
3 19 -2 26 -11 10 -12 10 -18 -1 -32 -8 -9 -9 -14 -4 -11 6 4 9 -14 8 -48 -1
-50 -5 -58 -40 -91 -21 -20 -39 -40 -39 -45 -1 -4 -2 -13 -3 -19 0 -5 -5 -8
-10 -5 -15 10 -19 -16 -18 -142 1 -109 -1 -124 -18 -142 -20 -19 -20 -16 -20
516 0 441 2 536 14 543 11 7 11 9 0 13 -9 3 0 11 21 21 44 19 53 20 44 5z"/>
<path d="M829 3983 c-12 -16 -12 -17 2 -6 9 7 20 9 24 5 5 -4 5 -1 1 6 -9 16
-11 15 -27 -5z"/>
<path d="M892 3965 c2 -14 -2 -20 -16 -18 -12 1 -15 -2 -8 -9 12 -12 62 17 62
36 0 6 -5 4 -10 -4 -9 -13 -11 -13 -20 0 -9 12 -10 12 -8 -5z"/>
<path d="M988 3973 c12 -2 32 -2 45 0 12 2 2 4 -23 4 -25 0 -35 -2 -22 -4z"/>
<path d="M824 3952 c3 -5 0 -13 -6 -15 -9 -4 -10 -6 -1 -6 17 -1 25 16 12 25
-7 4 -9 3 -5 -4z"/>
<path d="M953 3950 c-69 -16 -134 -85 -155 -165 -7 -26 -20 -50 -28 -52 -8 -3
-32 -12 -52 -20 -149 -62 -160 -290 -17 -368 40 -21 49 -31 49 -54 0 -76 -92
-61 -173 28 -38 42 -51 75 -20 50 15 -13 15 -12 1 11 -9 14 -14 33 -13 42 2
10 -1 20 -5 23 -5 3 -7 -4 -5 -15 2 -12 -1 -20 -10 -20 -7 0 -16 -7 -19 -16
-5 -14 -4 -15 9 -4 9 7 18 10 22 6 4 -3 0 -12 -9 -19 -30 -23 -51 -103 -45
-167 6 -74 38 -134 94 -176 23 -18 39 -34 36 -37 -3 -3 4 -3 15 -1 19 5 52
-18 52 -37 0 -17 -40 -49 -61 -49 -20 0 -21 -4 -16 -54 3 -29 14 -71 25 -93
26 -49 98 -117 118 -109 9 3 12 1 9 -4 -3 -6 5 -14 18 -19 14 -5 38 -29 54
-53 28 -41 92 -87 123 -88 12 0 14 12 12 60 -4 58 -5 61 -47 90 -23 16 -45 37
-49 45 -10 27 -7 155 4 155 6 0 10 -8 10 -17 0 -15 2 -16 10 -3 6 10 6 16 0
18 -6 2 -8 7 -6 11 3 4 -4 7 -14 7 -10 0 -16 -4 -14 -8 10 -15 -13 -8 -39 12
-77 60 -44 184 55 211 44 11 97 -1 120 -28 11 -14 9 -14 -20 1 -19 10 -36 15
-39 13 -2 -3 5 -8 18 -12 16 -5 18 -9 9 -15 -8 -5 0 -8 20 -7 31 2 35 -2 49
-36 19 -51 2 -109 -39 -134 -26 -15 -30 -23 -30 -63 0 -25 7 -56 16 -68 8 -12
12 -22 8 -22 -3 0 -1 -6 5 -14 7 -8 8 -16 4 -18 -4 -3 -1 -3 7 -1 8 3 19 5 24
6 19 4 36 -50 36 -115 0 -74 3 -77 56 -52 40 19 57 44 43 65 -5 7 -9 132 -9
276 l0 262 -27 19 c-16 11 -65 38 -110 61 -45 22 -87 50 -93 60 -5 11 -10 75
-10 143 l-1 123 -32 20 c-38 24 -64 87 -53 130 4 15 22 43 41 62 28 28 40 33
81 33 81 0 144 -57 144 -129 0 -25 -31 -91 -42 -91 -5 0 -7 4 -4 8 2 4 -5 9
-16 9 -20 2 -20 1 -2 -12 18 -14 18 -15 -3 -21 -22 -6 -23 -11 -23 -113 l0
-106 69 -38 c56 -30 69 -42 66 -58 -2 -11 0 -17 5 -14 5 3 9 157 10 348 0 303
-1 345 -16 366 -31 44 -102 60 -181 41z m164 -61 c15 -28 15 -289 1 -289 -5 0
-6 -5 -2 -12 4 -7 3 -8 -5 -4 -7 5 -8 13 -2 23 10 19 -3 86 -18 91 -6 2 -11
12 -11 23 0 10 -6 18 -12 17 -7 -2 -12 3 -10 10 1 8 -2 11 -7 8 -5 -3 -14 1
-21 9 -19 23 -92 29 -127 11 -17 -8 -33 -13 -36 -9 -3 3 -20 -16 -36 -43 -22
-34 -31 -60 -31 -92 0 -30 3 -41 12 -36 7 4 8 3 4 -4 -7 -12 22 -77 31 -68 3
3 13 -2 22 -11 13 -14 15 -35 13 -120 -3 -76 0 -108 10 -120 11 -14 11 -16 -2
-8 -12 7 -13 6 -3 -7 7 -8 9 -18 5 -22 -4 -4 -2 -6 3 -4 6 1 24 -9 40 -24 16
-16 38 -28 48 -28 10 0 15 -5 12 -10 -4 -6 7 -13 24 -16 18 -4 28 -11 24 -17
-4 -6 0 -8 9 -5 8 4 28 -2 43 -12 l27 -18 2 -251 c0 -138 4 -251 8 -251 10 0
6 -43 -5 -58 -6 -7 -18 -17 -27 -22 -15 -8 -17 -1 -19 52 -1 34 -7 70 -12 80
-5 10 -7 18 -3 18 7 0 -28 33 -58 54 -10 7 -20 29 -24 50 -5 33 -3 38 16 43
16 4 18 8 8 14 -10 7 -9 9 5 9 10 0 15 5 12 10 -3 6 -2 10 3 10 14 0 32 48 32
86 0 38 -19 83 -44 103 -9 7 -13 17 -10 22 3 5 -2 9 -11 9 -9 0 -29 7 -45 15
-18 9 -31 11 -35 5 -3 -6 -12 -10 -18 -10 -7 0 -6 4 3 10 9 6 10 10 3 10 -6 0
-19 -7 -27 -16 -10 -10 -16 -11 -16 -3 0 8 -5 8 -17 -2 -14 -12 -16 -12 -9 1
5 8 -6 -1 -24 -20 -19 -19 -32 -36 -29 -37 2 -1 -5 -9 -16 -18 -11 -9 -13 -13
-5 -9 12 6 13 5 3 -7 -13 -16 -11 -79 3 -114 4 -11 23 -34 42 -52 30 -29 33
-37 31 -80 -1 -26 3 -59 11 -73 16 -30 57 -70 72 -70 6 0 8 -3 5 -7 -4 -3 1
-12 11 -20 9 -8 11 -12 5 -8 -16 8 -16 0 -3 -25 23 -44 -49 -25 -80 20 -32 46
-69 91 -77 92 -4 0 -15 3 -23 5 -8 3 -21 7 -28 9 -7 2 -11 9 -10 16 2 7 -2 12
-8 11 -6 -1 -24 12 -40 29 -16 17 -22 27 -14 23 10 -6 10 -2 -3 12 -15 18 -41
121 -31 124 2 1 8 2 13 3 5 0 22 11 38 22 28 21 38 64 18 81 -4 5 -5 2 -1 -4
4 -7 2 -13 -3 -13 -6 0 -11 6 -11 13 0 8 -18 22 -40 32 -89 40 -130 112 -130
228 0 82 11 88 64 39 25 -23 51 -42 58 -42 9 0 8 -3 -2 -10 -12 -8 -9 -10 12
-10 15 0 30 -4 33 -10 3 -5 16 -10 28 -10 27 0 70 28 62 40 -3 5 -1 11 4 15
13 7 5 44 -14 65 -8 9 -13 19 -10 21 2 3 -6 6 -18 6 -12 1 -27 9 -33 18 -6 8
-16 15 -22 15 -20 0 -45 73 -46 135 -1 48 3 64 19 78 11 10 13 16 5 12 -9 -4
-8 0 3 8 10 9 18 18 18 21 -3 20 0 26 10 20 6 -3 24 7 41 22 17 16 28 23 23
16 -6 -11 -3 -12 11 -4 35 19 65 54 60 68 -3 8 -1 14 5 14 6 0 7 4 4 10 -7 12
24 62 36 55 4 -3 6 4 4 16 -2 12 -2 19 1 16 4 -3 20 7 36 22 23 22 41 28 81
30 28 1 53 4 55 6 9 9 68 -25 79 -46z m4 -368 c6 -194 3 -258 -9 -257 -7 1
-29 18 -49 37 -21 19 -33 27 -28 19 4 -8 5 -12 1 -8 -5 4 -9 45 -9 93 -1 81 1
87 28 115 16 17 35 28 42 26 17 -7 17 6 1 23 -11 10 -10 11 5 6 12 -5 17 -19
18 -54z m-106 -831 c3 -5 2 -10 -4 -10 -5 0 -13 5 -16 10 -3 6 -2 10 4 10 5 0
13 -4 16 -10z"/>
<path d="M786 3712 c-3 -5 1 -9 9 -9 8 0 12 4 9 9 -3 4 -7 8 -9 8 -2 0 -6 -4
-9 -8z"/>
<path d="M1100 2540 c-9 -6 -10 -10 -3 -10 6 0 15 5 18 10 8 12 4 12 -15 0z"/>
<path d="M1100 3956 c0 -2 7 -7 16 -10 8 -3 12 -2 9 4 -6 10 -25 14 -25 6z"/>
<path d="M766 3921 c-17 -19 -17 -19 0 -17 9 2 18 10 20 19 3 21 1 21 -20 -2z"/>
<path d="M1590 3921 c0 -11 4 -22 9 -25 4 -3 6 6 3 19 -5 30 -12 33 -12 6z"/>
<path d="M1232 3388 c-1 -430 -5 -548 -14 -548 -10 0 -10 -2 0 -9 8 -4 13 -11
13 -15 -3 -18 0 -24 15 -30 13 -5 14 -4 5 7 -8 10 -12 176 -14 578 l-2 564 -3
-547z"/>
<path d="M839 3903 c-13 -16 -12 -17 4 -4 9 7 17 15 17 17 0 8 -8 3 -21 -13z"/>
<path d="M1533 3870 c0 -30 2 -43 4 -27 2 15 2 39 0 55 -2 15 -4 2 -4 -28z"/>
<path d="M1161 3884 c0 -11 3 -14 6 -6 3 7 2 16 -1 19 -3 4 -6 -2 -5 -13z"/>
<path d="M796 3878 c3 -5 10 -6 15 -3 13 9 11 12 -6 12 -8 0 -12 -4 -9 -9z"/>
<path d="M750 3855 c-7 -8 -16 -12 -21 -9 -5 3 -9 -5 -9 -17 0 -21 1 -21 21 5
17 21 24 24 35 15 9 -7 12 -21 9 -33 -5 -16 -4 -18 4 -6 14 23 17 44 6 45 -5
0 -15 4 -21 8 -7 4 -17 0 -24 -8z"/>
<path d="M1164 3530 c0 -184 2 -260 3 -167 2 92 2 242 0 335 -1 92 -3 16 -3
-168z"/>
<path d="M1645 3850 c3 -5 11 -10 16 -10 6 0 7 5 4 10 -3 6 -11 10 -16 10 -6
0 -7 -4 -4 -10z"/>
<path d="M1686 3828 c3 -5 10 -6 15 -3 13 9 11 12 -6 12 -8 0 -12 -4 -9 -9z"/>
<path d="M690 3791 c0 -7 -5 -9 -12 -5 -7 4 -10 4 -6 -1 4 -4 3 -14 -3 -21
-10 -13 6 -32 18 -20 4 3 0 6 -7 6 -9 0 -8 6 5 20 10 11 15 23 12 27 -4 3 -7
1 -7 -6z"/>
<path d="M1791 3781 c-11 -7 -11 -13 3 -32 9 -13 16 -18 16 -12 0 7 -5 15 -10
18 -6 4 -8 11 -4 16 3 5 10 6 16 3 7 -4 8 -2 4 4 -8 14 -7 14 -25 3z"/>
<path d="M703 3735 c0 -7 6 -11 14 -8 7 3 13 6 13 8 0 2 -6 5 -13 8 -8 3 -14
-1 -14 -8z"/>
<path d="M888 3728 c-13 -13 -19 -20 -14 -16 5 4 18 0 28 -9 10 -9 18 -11 18
-6 0 6 -8 14 -17 18 -16 6 -15 8 7 20 14 8 20 14 13 15 -7 0 -22 -10 -35 -22z"/>
<path d="M961 3747 c2 -1 11 -8 21 -15 12 -10 18 -10 24 -1 4 8 3 9 -4 5 -7
-4 -12 -2 -12 3 0 6 -7 11 -17 11 -9 0 -14 -1 -12 -3z"/>
<path d="M579 3713 l-24 -28 28 24 c25 23 32 31 24 31 -2 0 -14 -12 -28 -27z"/>
<path d="M1780 3734 c0 -5 7 -18 15 -28 8 -11 15 -16 15 -10 0 5 -7 18 -15 28
-8 11 -15 16 -15 10z"/>
<path d="M933 3715 c0 -8 4 -12 9 -9 5 3 6 10 3 15 -9 13 -12 11 -12 -6z"/>
<path d="M1020 3726 c0 -2 8 -10 18 -17 15 -13 16 -12 3 4 -13 16 -21 21 -21
13z"/>
<path d="M600 3705 c-11 -13 -10 -14 5 -9 14 6 16 4 10 -6 -5 -8 -4 -11 3 -6
6 4 9 13 5 21 -7 19 -8 19 -23 0z"/>
<path d="M656 3703 c-6 -14 -5 -15 5 -6 7 7 10 15 7 18 -3 3 -9 -2 -12 -12z"/>
<path d="M1767 3700 c3 -11 9 -22 13 -25 5 -3 6 4 3 15 -3 11 -9 22 -13 25 -5
3 -6 -4 -3 -15z"/>
<path d="M1836 3693 c-6 -14 -5 -15 5 -6 7 7 10 15 7 18 -3 3 -9 -2 -12 -12z"/>
<path d="M883 3675 c0 -8 4 -12 9 -9 5 3 6 10 3 15 -9 13 -12 11 -12 -6z"/>
<path d="M1022 3685 c3 -3 16 -8 28 -10 12 -2 20 -1 16 2 -4 4 -16 8 -28 10
-12 2 -19 1 -16 -2z"/>
<path d="M932 3668 c-18 -18 -15 -56 6 -66 22 -12 40 -5 53 20 8 15 7 24 -7
39 -20 22 -35 24 -52 7z m38 -29 c0 -4 -4 -11 -10 -14 -5 -3 -10 -1 -10 5 0 6
-5 8 -12 4 -6 -4 -8 -3 -5 3 7 11 37 13 37 2z"/>
<path d="M579 3668 c-5 -16 -4 -46 2 -42 4 2 7 13 6 24 -1 17 -5 26 -8 18z"/>
<path d="M534 3649 c-3 -6 -2 -15 3 -20 5 -5 9 -1 9 11 0 23 -2 24 -12 9z"/>
<path d="M1444 3645 c-10 -8 -14 -14 -9 -14 6 0 19 6 29 14 11 8 15 15 10 15
-6 0 -19 -7 -30 -15z"/>
<path d="M1516 3628 c3 -5 10 -6 15 -3 13 9 11 12 -6 12 -8 0 -12 -4 -9 -9z"/>
<path d="M1003 3613 c-4 -10 -11 -22 -17 -26 -7 -6 -6 -7 3 -5 13 4 37 48 25
48 -2 0 -8 -8 -11 -17z"/>
<path d="M1549 3623 c-1 -4 -1 -11 0 -15 0 -5 -4 -8 -10 -8 -5 0 -7 -5 -4 -10
4 -7 -2 -9 -18 -5 -25 7 -57 -15 -57 -39 0 -20 22 -36 50 -36 16 0 21 -3 13
-8 -10 -6 -10 -12 1 -28 15 -19 15 -19 12 1 -2 11 4 29 13 40 15 18 15 19 -1
6 -17 -12 -17 -11 -12 20 4 19 13 44 20 56 9 14 10 24 4 28 -6 3 -11 3 -11 -2z
m-37 -71 c-7 -2 -10 -8 -6 -13 3 -5 0 -9 -5 -9 -13 0 -13 3 -5 24 3 9 11 13
17 9 8 -5 7 -8 -1 -11z"/>
<path d="M886 3605 c-11 -8 -15 -15 -9 -15 6 0 16 7 23 15 16 19 11 19 -14 0z"/>
<path d="M1028 3598 c10 -13 10 -17 0 -21 -7 -3 -2 -4 11 -3 14 2 26 8 27 15
2 7 1 7 -3 1 -3 -7 -13 -5 -26 7 -17 14 -19 14 -9 1z"/>
<path d="M1498 3603 c7 -3 16 -2 19 1 4 3 -2 6 -13 5 -11 0 -14 -3 -6 -6z"/>
<path d="M511 3574 c0 -11 3 -14 6 -6 3 7 2 16 -1 19 -3 4 -6 -2 -5 -13z"/>
<path d="M581 3574 c0 -11 3 -14 6 -6 3 7 2 16 -1 19 -3 4 -6 -2 -5 -13z"/>
<path d="M1781 3574 c0 -11 3 -14 6 -6 3 7 2 16 -1 19 -3 4 -6 -2 -5 -13z"/>
<path d="M887 3569 c7 -7 15 -10 18 -7 3 3 -2 9 -12 12 -14 6 -15 5 -6 -5z"/>
<path d="M1580 3571 c0 -6 4 -13 10 -16 6 -3 7 1 4 9 -7 18 -14 21 -14 7z"/>
<path d="M1840 3576 c0 -2 8 -10 18 -17 15 -13 16 -12 3 4 -13 16 -21 21 -21
13z"/>
<path d="M1381 3554 c0 -11 3 -14 6 -6 3 7 2 16 -1 19 -3 4 -6 -2 -5 -13z"/>
<path d="M1612 3545 c0 -16 2 -22 5 -12 2 9 2 23 0 30 -3 6 -5 -1 -5 -18z"/>
<path d="M1770 3541 c0 -6 4 -13 10 -16 6 -3 7 1 4 9 -7 18 -14 21 -14 7z"/>
<path d="M510 3513 c0 -21 3 -24 9 -14 5 8 7 20 4 28 -8 21 -13 15 -13 -14z"/>
<path d="M907 3533 c8 -6 13 -50 16 -133 l3 -125 -1 129 c0 106 -3 130 -15
133 -11 3 -12 2 -3 -4z"/>
<path d="M983 3485 c0 -22 2 -30 4 -17 2 12 2 30 0 40 -3 9 -5 -1 -4 -23z"/>
<path d="M1415 3510 c-2 -4 2 -7 10 -8 8 -1 22 -3 30 -4 10 -1 14 -7 10 -16
-5 -12 -3 -13 10 -2 15 12 15 14 -2 24 -22 12 -52 15 -58 6z"/>
<path d="M1917 3497 c-3 -8 1 -14 8 -14 7 0 11 6 8 14 -3 7 -6 13 -8 13 -2 0
-5 -6 -8 -13z"/>
<path d="M581 3484 c0 -11 3 -14 6 -6 3 7 2 16 -1 19 -3 4 -6 -2 -5 -13z"/>
<path d="M1486 3471 c-3 -5 2 -15 12 -22 15 -12 16 -12 5 2 -7 9 -10 19 -6 22
3 4 4 7 0 7 -3 0 -8 -4 -11 -9z"/>
<path d="M1551 3451 c-15 -11 -21 -25 -18 -37 4 -17 5 -16 6 3 0 12 10 24 21
28 11 3 20 11 20 16 0 12 -1 12 -29 -10z"/>
<path d="M1885 3454 c0 -10 7 -28 14 -39 8 -12 11 -14 8 -4 -3 9 -2 20 1 25 4
5 5 8 3 7 -2 -2 -9 5 -16 14 -11 14 -12 14 -10 -3z"/>
<path d="M469 3443 c-13 -16 -12 -17 3 -5 23 19 43 6 26 -16 -12 -15 -11 -16
5 -3 13 10 15 17 6 27 -15 18 -24 18 -40 -3z"/>
<path d="M1458 3453 c-2 -5 -1 -51 2 -103 l5 -95 5 93 c3 50 1 92 -3 92 -5 0
-5 5 -2 10 3 6 4 10 1 10 -3 0 -6 -3 -8 -7z"/>
<path d="M575 3420 c-9 -16 -13 -30 -11 -30 3 0 12 14 21 30 9 17 13 30 11 30
-3 0 -12 -13 -21 -30z"/>
<path d="M983 3395 c0 -27 2 -38 4 -22 2 15 2 37 0 50 -2 12 -4 0 -4 -28z"/>
<path d="M1930 3433 c0 -6 8 -17 18 -24 16 -13 16 -13 2 6 -8 11 -16 22 -17
24 -2 2 -3 0 -3 -6z"/>
<path d="M434 3399 c-8 -14 14 -19 25 -6 8 10 7 14 -5 14 -8 0 -17 -4 -20 -8z"/>
<path d="M1533 3320 c0 -36 2 -50 4 -32 2 17 2 47 0 65 -2 17 -4 3 -4 -33z"/>
<path d="M1912 3350 c0 -14 2 -19 5 -12 2 6 2 18 0 25 -3 6 -5 1 -5 -13z"/>
<path d="M655 3341 c-3 -5 -2 -12 3 -15 5 -3 9 1 9 9 0 17 -3 19 -12 6z"/>
<path d="M980 3329 c0 -5 -4 -8 -8 -5 -5 3 -9 -1 -9 -8 0 -7 6 -13 14 -13 7 0
13 9 13 19 0 10 -2 18 -5 18 -3 0 -5 -5 -5 -11z"/>
<path d="M727 3281 c-4 -17 -3 -21 5 -13 5 5 8 16 6 23 -3 8 -7 3 -11 -10z"/>
<path d="M463 3235 c0 -33 2 -45 4 -27 2 18 2 45 0 60 -2 15 -4 0 -4 -33z"/>
<path d="M393 3225 c0 -33 2 -45 4 -27 2 18 2 45 0 60 -2 15 -4 0 -4 -33z"/>
<path d="M1020 3270 c12 -7 10 -11 -10 -19 -15 -6 -19 -10 -9 -10 9 -1 22 5
28 12 11 14 5 27 -13 27 -6 0 -4 -5 4 -10z"/>
<path d="M1491 3264 c0 -11 3 -14 6 -6 3 7 2 16 -1 19 -3 4 -6 -2 -5 -13z"/>
<path d="M1881 3256 c-9 -11 -9 -16 0 -22 7 -4 9 -3 5 4 -3 6 2 15 11 21 10 6
13 11 7 11 -6 0 -17 -6 -23 -14z"/>
<path d="M930 3256 c0 -2 8 -10 18 -17 15 -13 16 -12 3 4 -13 16 -21 21 -21
13z"/>
<path d="M1044 3248 c-14 -22 -14 -40 -1 -29 7 5 16 9 20 9 16 0 17 9 3 21
-11 9 -16 9 -22 -1z m20 -6 c3 -5 -1 -9 -9 -9 -8 0 -12 4 -9 9 3 4 7 8 9 8 2
0 6 -4 9 -8z"/>
<path d="M1422 3217 c-29 -30 -31 -35 -17 -47 8 -7 18 -10 22 -6 3 3 0 6 -7 6
-14 0 -5 14 11 16 5 1 12 2 15 3 4 0 1 8 -6 16 -17 20 4 20 24 -1 9 -8 16 -10
16 -4 0 6 -7 13 -15 16 -8 4 -15 11 -15 16 0 6 7 7 16 4 8 -3 12 -2 9 4 -10
16 -19 12 -53 -23z m14 -19 c4 -7 4 -10 -1 -6 -4 4 -15 2 -24 -5 -14 -11 -14
-10 -2 6 16 20 18 21 27 5z"/>
<path d="M1530 3242 c0 -19 -51 -71 -64 -66 -8 3 -17 1 -21 -5 -4 -7 0 -8 11
-4 13 5 15 3 9 -8 -4 -8 6 0 24 16 36 33 56 64 47 73 -3 3 -6 0 -6 -6z"/>
<path d="M1905 3240 c-3 -5 -1 -10 4 -10 6 0 11 5 11 10 0 6 -2 10 -4 10 -3 0
-8 -4 -11 -10z"/>
<path d="M1927 3199 c-3 -12 -10 -18 -16 -15 -5 4 -12 2 -15 -3 -5 -8 15 -8
34 -1 3 1 8 2 11 2 4 -1 5 8 2 18 -7 25 -9 25 -16 -1z"/>
<path d="M1030 3196 c0 -2 7 -7 16 -10 8 -3 12 -2 9 4 -6 10 -25 14 -25 6z"/>
<path d="M1167 3179 c7 -7 15 -10 18 -7 3 3 -2 9 -12 12 -14 6 -15 5 -6 -5z"/>
<path d="M1716 3158 c3 -5 10 -6 15 -3 13 9 11 12 -6 12 -8 0 -12 -4 -9 -9z"/>
<path d="M1941 3143 c-1 -17 16 -25 25 -12 4 7 3 9 -4 5 -5 -3 -13 0 -15 6 -4
9 -6 10 -6 1z"/>
<path d="M1160 2872 l5 -267 3 259 c1 143 -1 263 -5 267 -5 5 -6 -112 -3 -259z"/>
<path d="M480 3121 c0 -6 4 -13 10 -16 6 -3 7 1 4 9 -7 18 -14 21 -14 7z"/>
<path d="M1414 3116 c-3 -8 -4 -23 -2 -33 3 -11 6 -6 9 15 6 34 2 42 -7 18z"/>
<path d="M1353 3070 c0 -30 2 -43 4 -27 2 15 2 39 0 55 -2 15 -4 2 -4 -28z"/>
<path d="M1960 3105 c0 -5 5 -17 10 -25 5 -8 10 -10 10 -5 0 6 -5 17 -10 25
-5 8 -10 11 -10 5z"/>
<path d="M499 3056 c6 -7 7 -17 3 -22 -4 -4 1 -2 11 5 19 15 16 24 -9 27 -11
2 -12 -1 -5 -10z"/>
<path d="M2001 3054 c0 -11 3 -14 6 -6 3 7 2 16 -1 19 -3 4 -6 -2 -5 -13z"/>
<path d="M446 3048 c3 -5 10 -6 15 -3 13 9 11 12 -6 12 -8 0 -12 -4 -9 -9z"/>
<path d="M1410 2953 c-3 -62 -1 -109 3 -104 4 4 6 55 5 112 l-3 104 -5 -112z"/>
<path d="M470 3035 c-7 -8 -11 -15 -9 -16 37 -7 40 -7 30 5 -6 7 -8 16 -4 19
3 4 4 7 1 7 -3 0 -11 -7 -18 -15z"/>
<path d="M535 3031 c-3 -5 -2 -12 3 -15 5 -3 9 1 9 9 0 17 -3 19 -12 6z"/>
<path d="M854 3019 c-12 -13 -13 -19 -4 -19 7 0 10 -7 5 -17 -4 -13 -3 -15 5
-7 6 6 13 20 14 30 3 17 14 21 49 14 6 -1 1 -6 -13 -10 -23 -7 -24 -8 -3 -9
12 -1 29 -11 37 -22 15 -22 15 -22 13 -1 0 11 -6 20 -12 19 -5 -1 -10 7 -9 18
1 28 -58 30 -82 4z"/>
<path d="M1943 2990 c0 -25 2 -35 4 -22 2 12 2 32 0 45 -2 12 -4 2 -4 -23z"/>
<path d="M512 3010 c2 -9 -3 -14 -12 -12 -10 3 -9 -3 5 -18 11 -12 19 -32 18
-44 -2 -13 0 -15 4 -6 3 8 11 21 17 29 8 11 8 13 -1 7 -8 -4 -13 -1 -14 8 -3
29 -4 34 -12 43 -5 4 -7 1 -5 -7z"/>
<path d="M563 3005 c0 -7 6 -11 14 -8 7 3 13 6 13 8 0 2 -6 5 -13 8 -8 3 -14
-1 -14 -8z"/>
<path d="M569 2973 c-13 -16 -12 -17 4 -4 9 7 17 15 17 17 0 8 -8 3 -21 -13z"/>
<path d="M874 2964 c-8 -33 15 -59 45 -49 26 8 30 60 5 69 -30 11 -44 6 -50
-20z m51 -13 c3 -6 -3 -9 -14 -8 -11 0 -17 5 -15 9 7 11 22 10 29 -1z"/>
<path d="M1590 2960 c0 -5 7 -7 15 -4 8 4 15 8 15 10 0 2 -7 4 -15 4 -8 0 -15
-4 -15 -10z"/>
<path d="M810 2950 c0 -5 5 -10 11 -10 5 0 7 5 4 10 -3 6 -8 10 -11 10 -2 0
-4 -4 -4 -10z"/>
<path d="M995 2949 c-4 -6 -5 -12 -2 -15 2 -3 7 2 10 11 7 17 1 20 -8 4z"/>
<path d="M590 2931 c-5 -11 -9 -41 -9 -68 l2 -48 6 55 c3 30 10 61 14 68 5 6
6 12 3 12 -3 0 -10 -9 -16 -19z"/>
<path d="M1605 2940 c-4 -6 -11 -7 -17 -4 -7 4 -8 2 -4 -5 6 -9 11 -9 22 0 14
11 18 19 10 19 -3 0 -8 -5 -11 -10z"/>
<path d="M1619 2923 c-13 -16 -12 -17 4 -4 9 7 17 15 17 17 0 8 -8 3 -21 -13z"/>
<path d="M1680 2920 l25 -21 -25 6 c-21 5 -22 4 -7 -5 9 -6 22 -8 27 -5 16 10
12 -6 -7 -29 -15 -19 -15 -19 7 1 20 19 21 24 10 38 -7 9 -23 21 -34 26 -17 8
-16 6 4 -11z"/>
<path d="M791 2923 c-2 -20 16 -24 30 -5 13 15 12 16 -3 4 -13 -10 -17 -10
-21 0 -4 9 -6 9 -6 1z"/>
<path d="M512 2880 c0 -19 2 -27 5 -17 2 9 2 25 0 35 -3 9 -5 1 -5 -18z"/>
<path d="M821 2896 c-8 -10 -8 -16 2 -24 10 -9 13 -6 13 13 0 29 0 29 -15 11z"/>
<path d="M910 2900 c-23 -7 -23 -8 -3 -9 12 -1 23 -4 26 -8 2 -5 2 -3 1 4 -2
6 2 14 9 17 19 7 -6 5 -33 -4z"/>
<path d="M865 2891 c-3 -5 -2 -12 3 -15 5 -3 9 1 9 9 0 17 -3 19 -12 6z"/>
<path d="M996 2883 c-6 -14 -5 -15 5 -6 7 7 10 15 7 18 -3 3 -9 -2 -12 -12z"/>
<path d="M1893 2840 c-17 -28 -27 -52 -22 -56 5 -3 6 -10 3 -16 -4 -7 -2 -8 5
-4 8 6 9 12 2 20 -16 19 -1 28 16 10 8 -8 19 -12 24 -9 5 4 9 2 9 -3 0 -10
-31 -39 -37 -34 -1 1 -3 0 -3 -3 0 -3 0 -8 0 -12 0 -3 11 4 24 16 13 12 24 34
24 48 0 22 -2 23 -10 9 -8 -13 -13 -15 -24 -5 -12 10 -11 16 3 40 11 18 23 27
32 24 11 -4 12 -3 1 10 -7 8 -13 15 -14 14 0 0 -15 -22 -33 -49z"/>
<path d="M1950 2886 c0 -2 8 -10 18 -17 15 -13 16 -12 3 4 -13 16 -21 21 -21
13z"/>
<path d="M1731 2863 c3 -20 -2 -34 -11 -28 -6 4 -7 12 -3 18 3 7 -3 3 -15 -7
-24 -21 -31 -36 -8 -17 10 8 15 9 18 1 2 -6 12 -12 22 -14 11 -1 23 -11 27
-22 6 -16 8 -16 8 -2 1 9 -5 23 -12 30 -8 7 -12 18 -10 25 2 6 -1 14 -7 18 -6
3 -10 3 -9 -2z"/>
<path d="M1356 2852 c-3 -5 1 -9 9 -9 8 0 12 4 9 9 -3 4 -7 8 -9 8 -2 0 -6 -4
-9 -8z"/>
<path d="M1300 2826 c0 -2 7 -7 16 -10 8 -3 12 -2 9 4 -6 10 -25 14 -25 6z"/>
<path d="M596 2787 c3 -10 9 -15 12 -12 3 3 0 11 -7 18 -10 9 -11 8 -5 -6z"/>
<path d="M931 2780 c0 -8 4 -22 9 -30 12 -18 12 -2 0 25 -6 13 -9 15 -9 5z"/>
<path d="M1820 2774 c-17 -10 -18 -13 -5 -8 11 3 25 7 32 7 7 0 10 4 7 9 -6
10 -4 10 -34 -8z"/>
<path d="M1260 2770 c-9 -6 -10 -10 -3 -10 6 0 15 5 18 10 8 12 4 12 -15 0z"/>
<path d="M1305 2770 c-3 -6 1 -7 9 -4 18 7 21 14 7 14 -6 0 -13 -4 -16 -10z"/>
<path d="M610 2751 c0 -6 4 -13 10 -16 6 -3 7 1 4 9 -7 18 -14 21 -14 7z"/>
<path d="M1203 2735 c0 -8 5 -11 10 -8 5 3 12 1 16 -5 4 -6 11 -4 20 6 12 13
12 14 0 10 -8 -3 -21 -2 -30 3 -11 5 -16 3 -16 -6z"/>
<path d="M1846 2742 c-3 -5 1 -9 9 -9 8 0 12 4 9 9 -3 4 -7 8 -9 8 -2 0 -6 -4
-9 -8z"/>
<path d="M882 2715 c0 -16 2 -22 5 -12 2 9 2 23 0 30 -3 6 -5 -1 -5 -18z"/>
<path d="M586 2711 c-12 -13 -14 -21 -6 -26 6 -4 9 -1 8 7 -2 7 4 13 12 13 8
0 14 -6 12 -13 -1 -8 2 -11 8 -7 8 5 7 12 -2 23 -7 10 -13 18 -14 20 0 1 -9
-6 -18 -17z"/>
<path d="M947 2716 c-3 -8 0 -20 8 -26 12 -10 13 -8 10 10 -6 29 -11 34 -18
16z"/>
<path d="M1805 2711 c-3 -5 -2 -12 3 -15 5 -3 9 1 9 9 0 17 -3 19 -12 6z"/>
<path d="M1840 2710 c-9 -6 -10 -10 -3 -10 6 0 15 5 18 10 8 12 4 12 -15 0z"/>
<path d="M935 2681 c11 -13 19 -25 18 -27 -7 -10 -2 -24 8 -24 8 0 8 4 0 14
-7 8 -8 16 -2 18 5 1 -3 12 -17 22 l-27 20 20 -23z"/>
<path d="M630 2671 c0 -6 4 -13 10 -16 6 -3 7 1 4 9 -7 18 -14 21 -14 7z"/>
<path d="M670 2676 c0 -2 8 -10 18 -17 15 -13 16 -12 3 4 -13 16 -21 21 -21
13z"/>
<path d="M1216 2657 c3 -10 9 -15 12 -12 3 3 0 11 -7 18 -10 9 -11 8 -5 -6z"/>
<path d="M605 2650 c3 -5 8 -10 11 -10 2 0 4 5 4 10 0 6 -5 10 -11 10 -5 0 -7
-4 -4 -10z"/>
<path d="M655 2641 c-3 -5 -2 -12 3 -15 5 -3 9 1 9 9 0 17 -3 19 -12 6z"/>
<path d="M700 2640 c-11 -7 -12 -12 -4 -20 8 -8 14 -8 18 -1 4 5 14 7 24 4 18
-6 17 -5 -8 14 -10 8 -21 9 -30 3z"/>
<path d="M1716 2635 c-9 -26 -7 -32 5 -12 6 10 9 21 6 23 -2 3 -7 -2 -11 -11z"/>
<path d="M1231 2614 c0 -11 3 -14 6 -6 3 7 2 16 -1 19 -3 4 -6 -2 -5 -13z"/>
<path d="M1676 2614 c-3 -9 -4 -19 -1 -22 3 -3 5 1 5 9 0 11 2 11 10 -1 5 -8
10 -10 10 -5 0 6 -4 16 -9 23 -6 11 -10 10 -15 -4z"/>
<path d="M1745 2620 c3 -5 8 -10 11 -10 2 0 4 5 4 10 0 6 -5 10 -11 10 -5 0
-7 -4 -4 -10z"/>
<path d="M1031 2604 c0 -11 3 -14 6 -6 3 7 2 16 -1 19 -3 4 -6 -2 -5 -13z"/>
<path d="M1733 2589 c-2 -23 3 -25 10 -4 4 8 3 16 -1 19 -4 3 -9 -4 -9 -15z"/>
<path d="M676 2588 c3 -5 10 -6 15 -3 13 9 11 12 -6 12 -8 0 -12 -4 -9 -9z"/>
<path d="M805 2573 c15 -33 7 -51 -17 -37 -10 6 -10 4 0 -7 9 -10 15 -10 24
-1 9 9 16 8 32 -6 15 -12 14 -9 -4 14 -14 17 -31 40 -38 50 -7 11 -5 5 3 -13z"/>
<path d="M1170 2581 c0 -6 4 -13 10 -16 6 -3 7 1 4 9 -7 18 -14 21 -14 7z"/>
<path d="M750 2560 c-9 -6 -10 -10 -3 -10 6 0 15 5 18 10 8 12 4 12 -15 0z"/>
<path d="M1635 2552 c-3 -3 1 -12 8 -20 10 -13 9 -15 -6 -9 -10 4 -16 3 -12
-2 3 -6 14 -9 25 -8 13 1 16 5 10 12 -6 7 -6 15 1 22 6 6 5 10 -6 10 -8 0 -17
-3 -20 -5z"/>
<path d="M1696 2551 c-4 -5 -2 -12 3 -15 5 -4 12 -2 15 3 4 5 2 12 -3 15 -5 4
-12 2 -15 -3z"/>
<path d="M1175 2541 c-3 -5 -2 -12 3 -15 5 -3 9 1 9 9 0 17 -3 19 -12 6z"/>
<path d="M1276 2522 c-3 -5 1 -15 8 -21 11 -10 14 -9 12 3 -3 21 -13 29 -20
18z"/>
<path d="M822 2496 c7 -8 17 -12 22 -9 4 3 2 9 -5 14 -22 13 -31 11 -17 -5z"/>
<path d="M980 2492 c0 -7 -15 -13 -32 -13 -32 -2 -33 -2 -4 -6 28 -5 56 11 43
24 -4 3 -7 1 -7 -5z"/>
<path d="M1043 2463 c0 -6 6 -9 14 -6 19 7 16 -7 -4 -24 -16 -13 -16 -13 3 -4
12 6 25 7 29 3 4 -4 3 3 -4 15 -8 16 -8 22 2 26 6 2 0 4 -14 3 -14 0 -26 -6
-26 -13z"/>
<path d="M1388 2473 c7 -3 16 -2 19 1 4 3 -2 6 -13 5 -11 0 -14 -3 -6 -6z"/>
<path d="M1629 2463 c-13 -16 -12 -17 4 -4 9 7 17 15 17 17 0 8 -8 3 -21 -13z"/>
<path d="M1130 2466 c0 -2 7 -7 16 -10 8 -3 12 -2 9 4 -6 10 -25 14 -25 6z"/>
<path d="M1352 2461 c-11 -7 -11 -9 0 -14 9 -3 15 1 15 9 0 8 -1 14 -1 14 -1
0 -7 -4 -14 -9z"/>
<path d="M1101 2454 c-1 -6 5 -17 12 -23 10 -8 14 -7 14 4 0 8 -4 12 -8 9 -4
-2 -10 2 -12 8 -4 8 -6 9 -6 2z"/>
<path d="M993 2403 c15 -2 37 -2 50 0 12 2 0 4 -28 4 -27 0 -38 -2 -22 -4z"/>
<path d="M1428 2403 c6 -2 18 -2 25 0 6 3 1 5 -13 5 -14 0 -19 -2 -12 -5z"/>
<path d="M2370 3909 c-49 -9 -111 -42 -137 -73 -13 -14 -27 -26 -33 -26 -5 0
-9 -6 -7 -12 1 -7 -4 -12 -11 -10 -8 1 -12 -3 -10 -10 3 -7 -2 -18 -11 -25
-13 -9 -16 -32 -16 -120 0 -94 3 -114 23 -151 24 -44 82 -112 82 -96 0 5 5 1
11 -8 5 -10 16 -18 24 -18 7 0 21 -8 30 -17 13 -12 34 -16 89 -16 70 1 72 0
109 -38 21 -21 43 -39 49 -39 6 0 20 -7 30 -17 12 -10 18 -12 18 -4 0 7 5 9
12 5 8 -5 9 -2 5 10 -4 11 -3 15 4 11 11 -7 68 13 70 24 0 3 2 16 5 28 3 17
-3 26 -24 37 -15 8 -37 26 -50 40 -22 24 -22 25 -4 38 10 7 30 30 44 51 22 32
27 36 31 20 3 -10 4 1 2 25 -2 23 1 42 6 42 8 0 13 -46 12 -112 0 -10 4 -18 9
-18 5 0 6 -4 3 -10 -3 -5 -1 -10 4 -10 6 0 10 -6 9 -12 -2 -7 3 -12 10 -10 8
1 11 -2 7 -7 -3 -6 5 -15 17 -22 13 -7 26 -17 30 -23 9 -13 113 -12 130 1 7 6
27 8 43 6 64 -11 116 -6 133 11 15 15 17 39 15 198 -2 159 -4 182 -20 195 -10
8 -12 11 -4 7 9 -5 12 -3 7 4 -4 7 -32 12 -66 12 -80 0 -86 -11 -81 -154 2
-74 0 -106 -7 -102 -7 4 -10 -1 -7 -12 2 -13 -4 -18 -25 -20 -15 -1 -32 4 -38
10 -6 7 -11 65 -13 128 -2 136 -10 150 -76 150 -59 0 -76 -19 -81 -89 -4 -69
-12 -81 -12 -19 0 29 -9 62 -26 94 -26 50 -88 113 -112 114 -8 0 -10 5 -6 13
4 6 4 9 -1 5 -4 -4 -15 -3 -22 4 -8 6 -27 13 -41 14 -15 1 -43 4 -62 6 -19 3
-51 1 -70 -3z m176 -47 c49 -25 108 -88 129 -138 19 -47 19 -138 0 -196 -9
-25 -33 -62 -55 -83 l-40 -39 56 -57 55 -56 -43 -16 c-24 -10 -51 -17 -60 -17
-8 0 -36 22 -60 49 -44 48 -45 48 -96 43 -142 -13 -272 115 -272 267 0 115 70
217 177 257 52 20 157 13 209 -14z m314 -246 c0 -68 3 -132 7 -142 5 -13 3
-15 -8 -9 -8 5 -5 -1 5 -13 11 -13 30 -21 45 -21 l26 2 -25 4 c-14 3 -29 9
-34 13 -5 6 6 7 28 3 30 -5 41 -1 61 17 24 23 25 29 25 147 l0 124 58 -3 57
-3 3 -187 2 -188 -60 0 c-33 0 -60 3 -60 8 0 4 20 6 45 4 25 -2 45 0 45 4 0 5
-23 9 -50 10 -28 1 -50 -2 -50 -6 0 -17 -63 -32 -111 -28 -58 6 -104 42 -115
92 -4 17 -8 91 -8 163 l-1 133 58 0 57 0 0 -124z"/>
<path d="M2487 3858 c-4 -13 -1 -16 15 -13 11 3 23 7 27 11 3 4 -2 4 -11 1 -9
-3 -18 -1 -21 6 -2 6 -6 4 -10 -5z"/>
<path d="M2447 3849 c7 -7 15 -10 18 -7 3 3 -2 9 -12 12 -14 6 -15 5 -6 -5z"/>
<path d="M2556 3825 c-3 -8 -1 -15 4 -15 13 0 22 18 11 24 -5 3 -11 -1 -15 -9z"/>
<path d="M2256 3811 c-12 -13 -14 -21 -6 -26 6 -4 9 -1 8 7 -2 8 6 13 20 12
18 -1 20 1 11 12 -14 17 -13 18 -33 -5z"/>
<path d="M2316 3822 c-10 -16 9 -30 21 -17 10 10 9 14 -2 19 -8 3 -16 2 -19
-2z"/>
<path d="M2418 3803 c7 -3 16 -2 19 1 4 3 -2 6 -13 5 -11 0 -14 -3 -6 -6z"/>
<path d="M2535 3791 c-3 -5 -2 -12 3 -15 5 -3 9 1 9 9 0 17 -3 19 -12 6z"/>
<path d="M2270 3775 c-7 -9 -5 -17 7 -26 16 -13 17 -12 4 4 -7 9 -11 18 -7 18
3 1 10 2 15 3 17 2 21 13 6 13 -8 0 -20 -6 -25 -12z"/>
<path d="M2335 3780 c-3 -6 1 -7 9 -4 18 7 21 14 7 14 -6 0 -13 -4 -16 -10z"/>
<path d="M2490 3786 c0 -2 7 -7 16 -10 8 -3 12 -2 9 4 -6 10 -25 14 -25 6z"/>
<path d="M2348 3765 c-44 -24 -71 -80 -71 -144 0 -91 35 -140 117 -162 45 -12
110 7 141 41 10 11 21 18 24 15 7 -4 8 -2 19 102 4 39 5 70 3 67 -6 -6 -45 60
-42 71 1 6 -1 7 -4 3 -4 -4 -20 -1 -36 7 -36 19 -116 19 -151 0z m133 -22 c21
-10 39 -24 39 -30 0 -7 4 -13 9 -13 14 0 27 -50 26 -96 -1 -38 -40 -112 -52
-100 -3 3 -12 -1 -20 -9 -19 -20 -97 -20 -113 0 -7 9 -15 13 -17 11 -3 -2 -14
5 -26 17 -28 28 -32 133 -7 180 10 17 22 32 28 32 6 0 17 6 24 13 17 17 65 15
109 -5z"/>
<path d="M2566 3761 c-13 -14 -14 -21 -5 -27 7 -4 10 -3 6 3 -4 6 1 17 10 24
15 12 16 12 9 -6 -6 -16 -5 -18 5 -7 9 8 10 15 3 22 -7 7 -16 4 -28 -9z"/>
<path d="M2196 3735 c-9 -26 -7 -32 5 -12 6 10 9 21 6 23 -2 3 -7 -2 -11 -11z"/>
<path d="M2626 3717 c3 -10 9 -15 12 -12 3 3 0 11 -7 18 -10 9 -11 8 -5 -6z"/>
<path d="M2222 3660 c0 -14 2 -19 5 -12 2 6 2 18 0 25 -3 6 -5 1 -5 -13z"/>
<path d="M2252 3630 c0 -19 2 -27 5 -17 2 9 2 25 0 35 -3 9 -5 1 -5 -18z"/>
<path d="M2671 3644 c0 -11 3 -14 6 -6 3 7 2 16 -1 19 -3 4 -6 -2 -5 -13z"/>
<path d="M2173 3615 c0 -22 2 -30 4 -17 2 12 2 30 0 40 -3 9 -5 -1 -4 -23z"/>
<path d="M2581 3546 c-9 -10 -9 -16 -1 -21 6 -4 10 -3 9 2 -3 20 2 27 11 13 6
-9 10 -10 10 -3 0 19 -17 24 -29 9z"/>
<path d="M2204 3528 l-19 -23 23 19 c21 18 27 26 19 26 -2 0 -12 -10 -23 -22z"/>
<path d="M2650 3519 c0 -6 -6 -9 -13 -6 -8 3 -14 -1 -14 -8 0 -10 5 -11 19 -4
16 9 25 29 13 29 -3 0 -5 -5 -5 -11z"/>
<path d="M2290 3496 c0 -2 8 -10 18 -17 15 -13 16 -12 3 4 -13 16 -21 21 -21
13z"/>
<path d="M2535 3480 c-8 -13 9 -20 24 -11 10 6 9 10 -3 14 -8 3 -18 2 -21 -3z"/>
<path d="M2281 3467 c2 -1 15 -11 29 -22 l25 -20 -19 23 c-11 12 -24 22 -29
22 -6 0 -8 -1 -6 -3z"/>
<path d="M2330 3460 c0 -8 50 -24 56 -18 2 2 -10 9 -26 15 -17 6 -30 8 -30 3z"/>
<path d="M2481 3451 c-9 -6 -10 -11 -2 -15 6 -4 11 -2 11 4 0 6 5 8 12 4 7 -4
8 -3 4 4 -8 14 -7 14 -25 3z"/>
<path d="M2595 3450 c-3 -6 1 -7 9 -4 18 7 21 14 7 14 -6 0 -13 -4 -16 -10z"/>
<path d="M2251 3427 c2 -1 13 -9 24 -17 19 -14 19 -14 6 3 -7 9 -18 17 -24 17
-6 0 -8 -1 -6 -3z"/>
<path d="M2556 3412 c-2 -4 13 -26 35 -49 21 -23 39 -39 39 -35 0 5 -16 23
-35 42 -19 18 -32 37 -29 42 3 4 3 8 0 8 -3 0 -7 -3 -10 -8z"/>
<path d="M2348 3373 c7 -3 16 -2 19 1 4 3 -2 6 -13 5 -11 0 -14 -3 -6 -6z"/>
<path d="M2403 3363 c9 -2 23 -2 30 0 6 3 -1 5 -18 5 -16 0 -22 -2 -12 -5z"/>
<path d="M2539 3344 c-7 -9 -6 -12 6 -10 22 3 40 23 20 23 -8 0 -20 -6 -26
-13z"/>
<path d="M2576 3323 c-6 -14 -5 -15 5 -6 7 7 10 15 7 18 -3 3 -9 -2 -12 -12z"/>
<path d="M2596 3313 c-6 -14 -5 -15 5 -6 7 7 10 15 7 18 -3 3 -9 -2 -12 -12z"/>
<path d="M2643 3305 c0 -8 4 -12 9 -9 5 3 6 10 3 15 -9 13 -12 11 -12 -6z"/>
<path d="M2778 3723 c12 -2 32 -2 45 0 12 2 2 4 -23 4 -25 0 -35 -2 -22 -4z"/>
<path d="M2998 3601 c-2 -71 0 -127 5 -124 4 2 7 58 7 123 0 85 3 120 13 123
7 3 5 6 -5 6 -15 1 -17 -14 -20 -128z"/>
<path d="M3040 3726 c0 -2 11 -6 25 -8 14 -3 25 -1 25 3 0 5 -11 9 -25 9 -14
0 -25 -2 -25 -4z"/>
<path d="M2763 3640 c0 -41 2 -58 4 -37 2 20 2 54 0 75 -2 20 -4 3 -4 -38z"/>
<path d="M2830 3515 c0 -5 5 -17 10 -25 5 -8 10 -10 10 -5 0 6 -5 17 -10 25
-5 8 -10 11 -10 5z"/>
<path d="M2762 3470 c0 -14 2 -19 5 -12 2 6 2 18 0 25 -3 6 -5 1 -5 -13z"/>
<path d="M2950 3440 c-9 -6 -10 -10 -3 -10 6 0 15 5 18 10 8 12 4 12 -15 0z"/>
<path d="M2958 3413 c6 -3 10 -9 6 -14 -8 -14 2 -11 14 4 8 10 6 13 -11 14
-12 0 -16 -1 -9 -4z"/>
<path d="M2841 3369 c13 -8 88 -14 78 -5 -2 2 -24 6 -48 9 -29 4 -40 2 -30 -4z"/>
<path d="M4060 3838 c-5 -13 -11 -36 -15 -51 -3 -16 -11 -27 -18 -24 -7 2 -22
-8 -34 -22 -24 -27 -31 -47 -13 -36 6 3 10 1 10 -4 0 -18 -10 -13 -43 21 -18
18 -26 28 -18 23 9 -5 12 -4 8 2 -4 6 -32 16 -64 22 -48 11 -65 10 -101 -2
-23 -8 -45 -11 -48 -6 -8 14 -98 11 -117 -3 -18 -14 -21 -57 -18 -289 1 -132
4 -137 91 -133 64 3 71 17 67 142 -2 74 0 108 9 117 7 7 10 16 6 20 -4 4 4 4
17 0 16 -5 21 -4 17 4 -11 18 9 13 27 -7 13 -14 16 -42 18 -131 2 -133 10
-148 80 -149 32 -1 47 5 62 21 16 19 18 36 15 154 -2 98 0 129 9 122 7 -7 13
-5 16 3 4 8 6 7 6 -4 1 -10 5 -18 11 -18 5 0 9 -40 9 -90 -1 -67 3 -97 15
-115 9 -14 17 -28 17 -32 3 -18 77 -42 127 -43 75 0 107 25 104 83 -1 23 1 36
4 30 3 -7 5 -15 5 -18 -2 -7 18 -31 43 -53 10 -9 23 -22 30 -28 24 -22 175
-26 161 -4 -3 4 14 4 38 -2 72 -16 129 6 119 46 -3 13 -1 17 6 12 7 -4 12 -2
12 3 0 6 -4 11 -8 11 -9 0 -6 285 3 300 4 6 2 10 -2 10 -5 0 -13 10 -18 23 -8
18 -19 23 -59 25 -78 5 -86 -8 -86 -142 -1 -125 -9 -146 -58 -146 -30 0 -47
11 -36 23 4 3 6 57 5 119 -3 139 -10 152 -86 144 -73 -8 -74 -8 -67 -25 3 -11
-3 -9 -20 7 -14 12 -37 22 -54 22 -25 0 -30 4 -32 26 -4 53 -18 64 -83 64 -52
0 -61 -3 -69 -22z m130 -48 l0 -50 50 0 50 0 0 -46 0 -46 -65 4 c-49 2 -62 0
-51 -8 11 -8 16 -35 18 -100 l3 -89 48 1 47 0 0 -43 c0 -49 -17 -63 -78 -63
-56 0 -98 17 -118 48 -21 32 -34 235 -16 246 6 4 9 13 6 21 -4 8 -11 12 -16 9
-6 -4 -5 -10 3 -15 9 -6 1 -9 -23 -9 l-38 0 0 45 c0 43 1 45 30 45 29 0 30 1
30 50 l0 50 60 0 60 0 0 -50z m-294 -56 c60 -29 75 -74 79 -235 l3 -139 -59 0
-59 0 0 123 c0 144 -7 162 -65 160 -63 -2 -70 -17 -70 -158 l0 -125 -57 0 -58
0 0 190 0 190 55 0 c45 0 55 -3 55 -17 0 -14 2 -15 18 -1 36 32 105 37 158 12z
m554 -121 c0 -104 3 -130 17 -145 21 -24 68 -23 93 2 18 18 20 33 20 145 l0
125 55 0 55 0 0 -190 0 -190 -52 0 c-52 0 -53 1 -54 29 -1 29 -1 29 25 14 20
-12 22 -12 9 -1 -10 8 -15 18 -11 21 3 4 -4 4 -16 2 -18 -3 -21 0 -17 18 3 12
3 16 0 9 -3 -6 -10 -9 -16 -6 -6 4 -6 -1 1 -13 7 -15 7 -23 -2 -32 -9 -10 -8
-11 6 -5 13 4 16 2 12 -9 -16 -39 -119 -50 -172 -17 -56 34 -67 68 -71 228
l-4 142 61 0 61 0 0 -127z m-138 -52 c2 -44 0 -77 -4 -74 -5 2 -8 -1 -8 -6 0
-6 5 -11 12 -11 6 0 8 -3 5 -7 -4 -3 -17 2 -28 13 -16 14 -23 15 -26 7 -6 -16
-33 -17 -33 -2 0 5 -6 7 -12 3 -8 -5 -7 0 2 11 8 10 10 16 5 13 -13 -8 -14
104 -1 114 6 4 22 5 38 3 15 -2 28 1 28 6 0 5 4 9 9 9 5 0 11 -36 13 -79z"/>
<path d="M4108 3823 c12 -2 32 -2 45 0 12 2 2 4 -23 4 -25 0 -35 -2 -22 -4z"/>
<path d="M4021 3698 c-1 -30 3 -38 17 -38 11 0 13 3 5 8 -6 4 -13 21 -16 37
-4 27 -4 27 -6 -7z"/>
<path d="M4050 3726 c0 -2 7 -6 15 -10 8 -3 15 -1 15 4 0 6 -7 10 -15 10 -8 0
-15 -2 -15 -4z"/>
<path d="M4181 3713 c21 -28 23 -29 16 -11 -5 14 2 18 36 21 39 3 38 4 -12 5
-49 2 -52 1 -40 -15z"/>
<path d="M4164 3679 c-4 -8 -3 -9 4 -5 7 4 12 2 12 -3 0 -7 20 -10 48 -9 47 1
47 1 7 5 -22 3 -45 9 -51 14 -8 7 -15 6 -20 -2z"/>
<path d="M4169 3463 c11 -22 47 -40 58 -29 4 3 -1 6 -10 6 -9 0 -26 10 -38 23
-21 22 -21 22 -10 0z"/>
<path d="M4139 3423 c-13 -16 -12 -17 4 -4 16 13 21 21 13 21 -2 0 -10 -8 -17
-17z"/>
<path d="M4248 3433 c7 -3 16 -2 19 1 4 3 -2 6 -13 5 -11 0 -14 -3 -6 -6z"/>
<path d="M4136 3385 c4 -8 11 -15 16 -15 6 0 5 6 -2 15 -7 8 -14 15 -16 15 -2
0 -1 -7 2 -15z"/>
<path d="M4247 3385 c3 -8 9 -12 14 -9 12 7 11 11 -5 17 -10 4 -13 1 -9 -8z"/>
<path d="M4188 3363 c12 -2 30 -2 40 0 9 3 -1 5 -23 4 -22 0 -30 -2 -17 -4z"/>
<path d="M3813 3733 c9 -2 25 -2 35 0 9 3 1 5 -18 5 -19 0 -27 -2 -17 -5z"/>
<path d="M3662 3723 c24 -3 38 -10 41 -21 3 -12 5 -11 6 6 1 20 -3 22 -41 20
l-43 -1 37 -4z"/>
<path d="M3736 3700 c-27 -33 -35 -35 -52 -12 -9 12 -13 12 -19 2 -5 -9 -4
-11 3 -6 11 7 17 -6 12 -29 -1 -5 4 -5 11 2 9 9 17 8 34 -3 18 -12 25 -12 31
-3 4 7 3 9 -2 6 -6 -3 -16 -2 -23 2 -9 6 -6 16 14 39 15 18 25 32 22 32 -3 0
-17 -14 -31 -30z"/>
<path d="M3850 3709 l-25 -20 31 15 c17 8 35 12 39 8 5 -4 5 -1 1 6 -10 16
-17 15 -46 -9z"/>
<path d="M3623 3640 c0 -25 2 -35 4 -22 2 12 2 32 0 45 -2 12 -4 2 -4 -23z"/>
<path d="M3788 3663 c7 -3 16 -2 19 1 4 3 -2 6 -13 5 -11 0 -14 -3 -6 -6z"/>
<path d="M3890 3656 c0 -2 7 -7 16 -10 8 -3 12 -2 9 4 -6 10 -25 14 -25 6z"/>
<path d="M3703 3644 c4 -4 1 -14 -6 -22 -9 -13 -9 -14 1 -8 7 4 12 2 12 -6 0
-9 3 -9 10 2 14 21 12 27 -7 34 -10 4 -14 4 -10 0z"/>
<path d="M3950 3511 l0 -130 -37 -4 -38 -4 43 -1 42 -2 0 135 c0 74 -2 135 -5
135 -3 0 -5 -58 -5 -129z"/>
<path d="M3623 3505 c0 -38 2 -53 4 -32 2 20 2 52 0 70 -2 17 -4 1 -4 -38z"/>
<path d="M3648 3373 c12 -2 30 -2 40 0 9 3 -1 5 -23 4 -22 0 -30 -2 -17 -4z"/>
<path d="M4351 3623 c-1 -59 1 -105 3 -102 3 3 6 49 7 103 l1 98 34 -4 c19 -2
34 0 34 4 0 4 -18 8 -39 8 l-39 0 -1 -107z"/>
<path d="M4608 3723 c6 -2 18 -2 25 0 6 3 1 5 -13 5 -14 0 -19 -2 -12 -5z"/>
<path d="M4658 3723 c9 -3 12 -48 12 -173 l0 -169 -37 -4 -38 -4 43 -1 42 -2
0 180 c0 165 -1 180 -17 179 -11 0 -13 -3 -5 -6z"/>
<path d="M4594 3610 c0 -58 1 -81 3 -52 2 28 2 76 0 105 -2 28 -3 5 -3 -53z"/>
<path d="M4403 3505 c0 -8 4 -12 9 -9 5 3 6 10 3 15 -9 13 -12 11 -12 -6z"/>
<path d="M4440 3461 c0 -5 7 -12 16 -15 14 -5 15 -4 4 9 -14 17 -20 19 -20 6z"/>
<path d="M4480 3430 c0 -5 7 -7 15 -4 8 4 15 8 15 10 0 2 -7 4 -15 4 -8 0 -15
-4 -15 -10z"/>
<path d="M4360 3426 c0 -2 8 -10 18 -17 15 -13 16 -12 3 4 -13 16 -21 21 -21
13z"/>
<path d="M4442 3421 c-11 -6 -10 -10 4 -15 9 -3 19 -4 22 -1 3 3 0 5 -7 5 -7
0 -9 5 -6 10 7 12 4 12 -13 1z"/>
<path d="M4458 3363 c12 -2 30 -2 40 0 9 3 -1 5 -23 4 -22 0 -30 -2 -17 -4z"/>
<path d="M3293 3768 c-24 -5 -43 -13 -43 -19 0 -5 -6 -9 -14 -9 -20 0 -66 -65
-66 -92 1 -26 23 -60 36 -56 5 2 10 0 12 -4 1 -5 0 -8 -3 -8 -21 1 -72 -81
-66 -105 2 -5 4 -19 6 -30 8 -54 44 -99 90 -110 70 -16 93 -16 130 -1 21 9 43
13 49 8 17 -13 92 -7 111 8 14 12 16 33 13 154 -2 92 -9 151 -18 171 -7 17
-14 32 -14 35 -4 16 -20 30 -36 30 -10 0 -20 5 -22 11 -4 11 -70 29 -103 28
-11 -1 -39 -5 -62 -11z m149 -34 c24 -13 28 -18 17 -26 -10 -7 -9 -8 6 -4 16
5 25 -2 40 -26 16 -27 20 -58 23 -175 l5 -143 -56 0 -57 0 11 26 c8 23 7 25
-4 16 -8 -7 -17 -8 -21 -4 -4 4 -6 1 -4 -7 5 -21 -40 -41 -92 -41 -50 0 -96
20 -92 39 1 7 -2 10 -7 6 -12 -7 -41 46 -41 75 0 70 72 115 182 115 58 0 68 3
68 18 0 25 -36 57 -66 57 -15 0 -38 -12 -56 -30 -28 -29 -32 -30 -69 -19 -21
7 -39 18 -39 26 0 22 29 73 42 73 6 0 3 -10 -8 -22 l-19 -23 22 19 c13 10 20
23 17 28 -9 15 58 37 114 38 30 0 67 -7 84 -16z m-49 -114 c10 -10 7 -10 -10
-1 -13 6 -23 8 -23 3 0 -6 -10 -12 -23 -14 -15 -3 -24 0 -24 8 0 7 4 11 9 8 4
-3 8 -1 8 5 0 13 49 6 63 -9z"/>
<path d="M3330 3736 c0 -2 15 -6 34 -8 19 -2 32 0 30 4 -5 8 -64 12 -64 4z"/>
<path d="M3250 3660 c0 -5 0 -13 1 -16 0 -4 -5 -11 -13 -16 -11 -8 -10 -9 1
-6 13 4 28 48 16 48 -3 0 -5 -4 -5 -10z"/>
<path d="M3400 3666 c0 -2 8 -10 18 -17 15 -13 16 -12 3 4 -13 16 -21 21 -21
13z"/>
<path d="M3496 3647 c3 -10 9 -15 12 -12 3 3 0 11 -7 18 -10 9 -11 8 -5 -6z"/>
<path d="M3470 3631 c0 -6 4 -13 10 -16 6 -3 7 1 4 9 -7 18 -14 21 -14 7z"/>
<path d="M3278 3563 c7 -3 16 -2 19 1 4 3 -2 6 -13 5 -11 0 -14 -3 -6 -6z"/>
<path d="M3383 3533 c9 -2 23 -2 30 0 6 3 -1 5 -18 5 -16 0 -22 -2 -12 -5z"/>
<path d="M3279 3503 c-12 -14 -12 -16 0 -8 11 6 13 4 8 -7 -10 -26 17 -51 53
-50 37 1 80 36 80 65 0 18 -5 19 -50 13 -28 -4 -58 -10 -67 -13 -11 -4 -14 -3
-9 5 11 18 0 14 -15 -5z m105 -19 c3 -8 2 -12 -4 -9 -6 3 -10 2 -10 -3 0 -21
-40 -20 -51 0 -7 12 -7 18 -1 14 8 -5 27 0 58 13 1 1 5 -6 8 -15z"/>
<path d="M3190 3501 c0 -6 4 -13 10 -16 6 -3 7 1 4 9 -7 18 -14 21 -14 7z"/>
<path d="M3431 3494 c0 -11 3 -14 6 -6 3 7 2 16 -1 19 -3 4 -6 -2 -5 -13z"/>
<path d="M3253 3473 c11 -12 16 -26 13 -31 -3 -5 1 -9 9 -9 17 0 5 27 -22 48
-17 13 -17 12 0 -8z"/>
<path d="M3410 3455 c-11 -13 -10 -14 4 -9 9 3 16 10 16 15 0 13 -6 11 -20 -6z"/>
<path d="M3213 3434 c0 -7 4 -11 9 -8 4 3 20 -7 34 -23 l25 -28 -22 32 c-25
36 -46 48 -46 27z"/>
<path d="M3453 3373 c9 -2 25 -2 35 0 9 3 1 5 -18 5 -19 0 -27 -2 -17 -5z"/>
<path d="M3288 3363 c12 -2 32 -2 45 0 12 2 2 4 -23 4 -25 0 -35 -2 -22 -4z"/>
<path d="M4945 3773 c-11 -3 -24 -9 -30 -13 -5 -4 -19 -4 -30 1 -11 4 -40 8
-64 8 -73 1 -76 -7 -75 -217 0 -213 4 -222 84 -222 45 0 49 2 64 35 12 26 16
58 15 130 -2 86 -1 97 19 115 12 12 22 16 22 11 0 -6 8 -8 18 -4 9 3 14 3 10
-2 -4 -4 -3 -14 2 -20 6 -7 9 -55 7 -111 -5 -133 6 -154 79 -154 66 0 74 17
77 153 1 63 4 118 7 120 3 3 18 9 34 13 25 6 28 4 23 -10 -4 -10 -3 -15 3 -11
11 7 12 -15 10 -130 -1 -39 3 -83 9 -98 10 -25 15 -27 66 -27 86 0 88 4 84
173 -4 125 -7 147 -27 180 -25 43 -27 51 -10 41 7 -4 8 -3 4 5 -4 6 -11 9 -16
6 -4 -3 -29 5 -55 16 -55 24 -103 21 -160 -11 -19 -11 -35 -16 -35 -11 0 11
-75 41 -98 40 -9 -1 -26 -4 -37 -6z m87 -32 c13 -5 35 -21 50 -35 21 -20 27
-22 32 -10 3 9 1 12 -4 9 -6 -3 -10 -4 -10 0 0 3 15 14 33 25 46 28 113 26
159 -5 53 -36 68 -90 68 -242 l0 -123 -54 0 -54 0 -3 124 c-3 105 -7 127 -23
145 -24 26 -46 27 -80 0 -26 -20 -26 -22 -26 -145 l0 -124 -55 0 -55 0 0 125
c0 113 -2 127 -21 146 -25 25 -64 19 -91 -13 -15 -17 -18 -40 -18 -139 l0
-119 -55 0 -55 0 0 190 0 190 55 0 c43 0 55 -3 55 -16 0 -13 5 -12 26 5 29 22
86 28 126 12z"/>
<path d="M4963 3733 c9 -2 23 -2 30 0 6 3 -1 5 -18 5 -16 0 -22 -2 -12 -5z"/>
<path d="M5193 3733 c9 -2 25 -2 35 0 9 3 1 5 -18 5 -19 0 -27 -2 -17 -5z"/>
<path d="M4780 3550 l0 -181 43 3 42 3 1 105 0 105 -3 -102 -4 -103 -34 0 -35
0 0 170 0 170 36 0 c21 0 33 -4 29 -10 -3 -5 -1 -10 5 -10 7 0 10 6 8 13 -3 6
-23 13 -46 15 l-42 3 0 -181z"/>
<path d="M4901 3709 c-13 -11 -22 -21 -19 -24 2 -2 17 7 32 20 16 14 25 25 20
25 -5 -1 -20 -10 -33 -21z"/>
<path d="M5020 3726 c0 -2 7 -7 16 -10 8 -3 12 -2 9 4 -6 10 -25 14 -25 6z"/>
<path d="M5245 3720 c-4 -6 1 -7 11 -3 13 5 15 3 9 -7 -5 -9 -4 -11 4 -6 6 4
9 12 6 17 -8 12 -22 12 -30 -1z"/>
<path d="M5133 3705 c0 -8 4 -12 9 -9 5 3 6 10 3 15 -9 13 -12 11 -12 -6z"/>
<path d="M5051 3697 c-13 -17 -5 -28 15 -20 10 4 13 0 8 -13 -5 -16 -4 -16 5
-4 8 11 7 18 -4 26 -8 6 -12 14 -8 17 3 4 4 7 1 7 -3 0 -11 -6 -17 -13z"/>
<path d="M5130 3665 c7 -8 8 -15 4 -15 -5 0 -15 -9 -22 -21 -11 -17 -7 -16 22
7 39 31 39 33 6 39 -18 3 -20 2 -10 -10z"/>
<path d="M5256 3671 c-3 -4 1 -17 10 -27 14 -18 15 -18 5 2 -6 12 -7 24 -4 28
3 3 4 6 0 6 -3 0 -8 -4 -11 -9z"/>
<path d="M4890 3644 c-17 -15 -29 -28 -27 -31 2 -2 19 10 37 27 40 37 33 40
-10 4z"/>
<path d="M5188 3663 c7 -3 16 -2 19 1 4 3 -2 6 -13 5 -11 0 -14 -3 -6 -6z"/>
<path d="M4980 3656 c0 -2 7 -7 16 -10 8 -3 12 -2 9 4 -6 10 -25 14 -25 6z"/>
<path d="M5227 3649 c7 -7 15 -10 18 -7 3 3 -2 9 -12 12 -14 6 -15 5 -6 -5z"/>
<path d="M5102 3580 c0 -14 2 -19 5 -12 2 6 2 18 0 25 -3 6 -5 1 -5 -13z"/>
<path d="M5024 3505 c0 -49 1 -71 3 -48 2 23 2 64 0 90 -2 26 -3 8 -3 -42z"/>
<path d="M5343 3505 c0 -44 2 -61 4 -37 2 23 2 59 0 80 -2 20 -4 1 -4 -43z"/>
<path d="M5262 3545 c0 -16 2 -22 5 -12 2 9 2 23 0 30 -3 6 -5 -1 -5 -18z"/>
<path d="M5261 3438 c0 -38 2 -68 7 -68 4 0 6 21 4 48 -5 82 -9 89 -11 20z"/>
<path d="M5071 3434 c0 -11 3 -14 6 -6 3 7 2 16 -1 19 -3 4 -6 -2 -5 -13z"/>
<path d="M5046 3417 c3 -10 9 -15 12 -12 3 3 0 11 -7 18 -10 9 -11 8 -5 -6z"/>
<path d="M5341 3403 c-1 -16 -9 -23 -28 -26 l-28 -4 28 -2 c28 -1 43 17 34 41
-3 7 -6 3 -6 -9z"/>
<path d="M5024 3390 c1 -10 13 -15 41 -16 l40 -1 -37 4 c-20 2 -39 10 -41 16
-2 7 -3 5 -3 -3z"/>
<path d="M4272 3193 c-6 -3 -9 -10 -5 -16 4 -7 -2 -5 -12 3 -10 8 -16 10 -12
4 4 -6 -2 -19 -13 -29 -24 -22 -26 -53 -4 -83 20 -30 9 -47 -19 -30 -12 8 -35
12 -52 11 -16 -2 -62 -3 -102 -3 -59 1 -73 -2 -82 -17 -6 -10 -11 -16 -11 -13
-1 3 -3 15 -6 27 -2 12 -5 28 -6 35 -2 7 -13 23 -25 34 -12 12 -19 25 -16 28
4 3 -3 6 -15 6 -12 0 -22 4 -22 9 0 5 -7 12 -16 15 -10 4 -13 2 -8 -6 5 -7 3
-8 -6 -3 -8 5 -66 9 -129 10 -92 1 -119 -2 -131 -15 -13 -12 -16 -52 -19 -225
-1 -115 -5 -213 -8 -219 -4 -5 -1 -6 7 -1 10 6 12 4 7 -8 -4 -10 3 -21 19 -32
20 -13 48 -16 137 -14 62 1 117 6 123 11 7 5 16 8 20 7 18 -3 37 1 31 7 -8 8
16 33 26 27 4 -2 7 -1 6 4 -1 4 -1 15 0 23 1 13 2 13 11 0 7 -12 10 -8 10 14
0 16 3 26 7 23 3 -4 6 -22 5 -41 -2 -52 17 -69 82 -72 34 -2 54 1 51 7 -4 5
-1 9 4 9 7 0 11 38 11 106 0 77 3 103 12 98 8 -5 9 0 5 15 -4 18 -3 20 9 10
11 -9 14 -9 14 1 0 8 9 11 25 8 14 -3 25 -1 25 3 0 5 6 9 13 9 9 0 11 -29 9
-120 -3 -101 -1 -121 12 -126 9 -3 14 -9 12 -13 -3 -4 13 -6 35 -5 21 1 37 -2
34 -6 -3 -5 4 -6 15 -3 11 3 17 10 13 16 -4 6 0 8 9 5 13 -5 15 5 14 62 -1 37
2 66 7 63 4 -2 7 -10 7 -17 0 -7 9 -25 20 -38 10 -14 16 -29 12 -33 -4 -5 -1
-5 6 -1 6 4 12 3 12 -1 0 -5 -6 -15 -12 -22 -11 -10 -10 -11 5 -6 9 4 17 11
17 16 0 5 9 1 19 -8 11 -9 37 -22 58 -29 47 -17 46 -17 37 -2 -4 6 -3 8 4 4 6
-3 22 -2 37 4 20 8 37 7 62 -2 29 -11 38 -10 68 6 19 10 32 23 29 27 -3 5 -1
9 4 9 4 0 7 16 6 35 -2 19 1 35 6 35 6 0 10 -4 10 -10 0 -5 10 -20 21 -31 l22
-22 -32 -29 c-37 -34 -37 -38 -11 -71 11 -14 20 -30 20 -36 0 -6 5 -11 11 -11
5 0 7 5 3 11 -4 7 6 2 22 -9 31 -23 97 -42 129 -38 38 5 105 29 105 38 0 5 5
6 10 3 14 -9 63 101 66 145 1 19 4 36 8 37 11 5 75 -64 68 -72 -4 -5 0 -6 9
-2 9 3 25 0 35 -7 21 -15 157 -19 148 -5 -3 5 5 13 18 18 50 19 91 92 65 117
-4 4 -3 12 3 19 12 14 20 85 9 85 -5 0 -6 6 -3 14 9 23 -36 84 -79 107 -48 26
-163 32 -176 10 -5 -7 -12 -12 -17 -12 -13 0 -54 -37 -54 -49 0 -5 -10 -10
-22 -10 -19 0 -20 2 -8 10 12 7 12 10 1 10 -7 0 -11 6 -7 15 3 8 -4 24 -16 35
-17 16 -29 19 -57 13 -40 -8 -49 -7 -106 2 -47 8 -113 -7 -142 -32 -11 -10
-30 -34 -42 -53 -20 -33 -21 -34 -22 -10 -6 219 -6 220 -75 220 -57 0 -74 -19
-74 -81 l0 -49 -41 6 c-49 8 -116 -12 -130 -38 -6 -10 -15 -15 -21 -12 -6 4
-8 3 -5 -3 4 -6 0 -16 -8 -23 -8 -7 -15 -22 -15 -33 0 -16 -3 -18 -12 -9 -7 7
-11 30 -9 51 2 29 -2 40 -15 45 -16 6 -16 8 2 22 10 9 13 12 5 8 -10 -5 -12
-3 -7 5 5 7 14 10 21 7 8 -3 12 2 10 12 -2 9 -4 18 -5 20 -7 7 -5 29 2 39 7 8
2 11 -16 9 -17 -2 -23 1 -19 8 11 17 12 37 2 30 -5 -3 -7 -10 -4 -15 4 -5 1
-9 -4 -9 -6 0 -11 5 -11 12 0 6 -3 8 -6 5 -4 -3 -14 -3 -23 2 -9 5 -22 6 -29
4z m51 -52 c-2 -6 3 -10 9 -8 20 3 21 -43 2 -64 -22 -25 -59 -24 -84 1 -26 26
-25 46 4 75 20 20 30 23 48 16 13 -5 22 -14 21 -20z m407 -218 l0 -233 -46 0
c-43 0 -46 2 -41 23 6 23 -3 47 -19 50 -5 1 -8 5 -7 8 1 4 -7 4 -19 1 l-22 -5
23 -8 c19 -8 20 -11 10 -31 -12 -23 -12 -23 10 -4 11 11 21 14 21 8 0 -23 -51
-45 -97 -43 -58 2 -83 15 -78 41 2 12 0 18 -6 15 -5 -4 -7 -11 -4 -16 4 -5 2
-9 -4 -9 -17 0 -51 66 -57 111 -13 93 36 176 116 200 33 10 47 9 80 -4 l40
-15 0 67 c0 37 2 70 4 72 2 2 25 4 50 5 l46 1 0 -234z m-860 209 c42 -21 60
-53 60 -110 0 -36 -5 -49 -31 -73 -17 -16 -35 -29 -41 -29 -5 0 7 15 26 34 20
18 36 40 36 47 -1 8 -7 2 -15 -12 -13 -24 -40 -44 -57 -41 -3 1 -9 -5 -12 -13
-3 -8 -1 -15 5 -15 6 0 7 -5 3 -12 -5 -7 -3 -8 5 -4 7 5 22 0 34 -11 l22 -18
-19 23 c-21 24 -16 28 14 12 43 -23 46 -124 6 -168 -40 -45 -68 -52 -195 -52
l-120 0 -3 230 -3 230 125 0 c99 0 132 -4 160 -18z m1138 -102 c0 -3 0 -7 1
-10 1 -3 4 -19 5 -37 l4 -32 -27 16 c-28 18 -23 13 23 -27 16 -14 25 -18 21
-10 -13 22 -16 70 -4 70 5 0 8 -4 5 -8 -2 -4 5 -9 16 -9 21 -2 21 -2 -1 13
-33 23 -25 34 25 34 l46 0 -4 -187 c-3 -212 -8 -227 -79 -264 -73 -37 -167
-21 -231 39 -22 20 -25 28 -16 39 26 32 45 33 92 7 34 -19 54 -24 76 -19 32 7
60 38 60 67 0 10 5 18 10 18 15 0 12 26 -5 40 -12 10 -13 16 -3 29 11 14 11
14 -4 3 -9 -7 -15 -22 -13 -33 2 -11 -2 -20 -11 -20 -28 -3 -32 -4 -41 -13 -4
-5 -3 -6 4 -2 6 3 14 2 18 -3 3 -6 13 -8 23 -5 14 5 14 3 -2 -10 -26 -21 -92
-20 -136 2 -118 58 -100 274 26 312 30 8 122 9 122 0z m408 -16 c44 -21 73
-78 74 -141 l0 -43 -110 0 c-90 0 -110 -3 -110 -15 0 -25 47 -48 85 -42 26 4
34 3 28 -6 -4 -7 0 -6 10 2 20 16 23 26 5 15 -9 -5 -8 -2 1 10 11 12 22 15 45
10 43 -9 47 -13 37 -32 -48 -90 -165 -113 -252 -51 -74 52 -82 205 -15 268 54
51 128 60 202 25z m-1325 -26 c1 -24 1 -47 0 -51 -1 -4 8 -3 20 3 16 9 18 14
8 26 -9 11 -8 18 2 32 13 15 12 16 -3 3 -11 -8 -18 -9 -18 -3 0 16 34 32 69
32 30 0 31 -1 31 -45 0 -45 0 -45 -35 -45 -63 0 -75 -24 -75 -145 l0 -105 -50
0 -50 0 0 170 0 170 50 0 50 0 1 -42z m254 -128 l0 -170 -52 0 -53 0 0 170 0
170 53 0 52 0 0 -170z m-377 70 c2 -46 -1 -69 -8 -65 -5 3 -10 13 -10 21 0 8
-6 17 -14 20 -8 3 -17 12 -20 20 -3 9 -1 12 4 9 6 -3 10 1 10 9 0 9 5 16 11
16 5 0 7 5 3 12 -5 7 -3 8 6 3 9 -6 10 -2 5 15 -4 13 -3 20 2 17 5 -3 10 -38
11 -77z m147 30 c3 -5 1 -10 -4 -10 -6 0 -11 5 -11 10 0 6 2 10 4 10 3 0 8 -4
11 -10z m1055 -6 c0 -8 -19 -13 -24 -6 -3 5 1 9 9 9 8 0 15 -2 15 -3z m204
-156 c-6 -9 -40 -5 -51 5 -4 4 7 7 24 5 18 -1 29 -6 27 -10z m-351 -59 c-9 -9
-12 -7 -10 9 1 14 5 18 11 12 7 -7 6 -14 -1 -21z m-80 -66 c-7 -2 -21 -2 -30
0 -10 3 -4 5 12 5 17 0 24 -2 18 -5z"/>
<path d="M4278 3143 c6 -2 18 -2 25 0 6 3 1 5 -13 5 -14 0 -19 -2 -12 -5z"/>
<path d="M4266 3098 c3 -5 9 -7 12 -4 3 3 13 -1 23 -10 14 -12 18 -13 25 -2 4
7 4 10 -1 6 -4 -4 -15 -2 -23 4 -18 15 -44 20 -36 6z"/>
<path d="M4641 3075 c-5 -100 -5 -100 -19 -97 -8 1 -11 -2 -7 -9 5 -8 12 -7
22 3 10 11 13 35 10 94 l-3 79 -3 -70z"/>
<path d="M4678 3133 c7 -3 16 -2 19 1 4 3 -2 6 -13 5 -11 0 -14 -3 -6 -6z"/>
<path d="M4714 2920 c0 -124 2 -174 3 -112 2 61 2 163 0 225 -1 61 -3 11 -3
-113z"/>
<path d="M4535 3000 c-3 -5 -1 -10 4 -10 6 0 11 5 11 10 0 6 -2 10 -4 10 -3 0
-8 -4 -11 -10z"/>
<path d="M4575 3001 c-3 -5 0 -13 6 -17 8 -5 9 -3 4 6 -6 10 -3 12 13 8 12 -4
20 -2 16 3 -7 12 -31 12 -39 0z"/>
<path d="M4469 2973 c-13 -17 -13 -17 6 -3 11 8 22 16 24 17 2 2 0 3 -6 3 -6
0 -17 -8 -24 -17z"/>
<path d="M4548 2963 c7 -3 16 -2 19 1 4 3 -2 6 -13 5 -11 0 -14 -3 -6 -6z"/>
<path d="M4420 2939 c-7 -11 -9 -23 -6 -27 3 -3 6 1 6 8 0 11 3 11 12 2 7 -7
16 -12 22 -12 5 0 2 6 -9 13 -10 8 -15 19 -11 25 4 7 5 12 2 12 -3 0 -10 -9
-16 -21z"/>
<path d="M4524 2935 c-12 -8 -23 -12 -26 -10 -2 2 -3 -21 -1 -52 2 -40 8 -63
22 -76 24 -24 65 -25 90 -2 15 13 20 14 24 3 2 -7 3 -4 1 7 -2 11 -4 39 -4 63
0 69 -54 104 -106 67z m80 -63 c-1 -27 3 -39 10 -35 6 3 4 -2 -5 -11 -9 -9
-25 -18 -37 -19 -12 -1 -22 -6 -22 -12 -1 -5 -7 1 -15 15 -17 29 -19 76 -5 85
6 4 7 11 4 17 -4 7 -2 8 4 4 7 -4 12 -3 12 3 0 5 11 6 28 2 24 -7 27 -12 26
-49z"/>
<path d="M4402 2860 c0 -19 2 -27 5 -17 2 9 2 25 0 35 -3 9 -5 1 -5 -18z"/>
<path d="M4481 2825 c1 -19 18 -51 18 -35 0 8 -4 22 -9 30 -5 8 -9 11 -9 5z"/>
<path d="M4424 2788 c-3 -5 -1 -15 5 -21 9 -9 10 -7 5 7 -6 15 -4 17 7 10 22
-14 44 -15 30 -1 -15 15 -39 18 -47 5z"/>
<path d="M4668 2703 c6 -2 18 -2 25 0 6 3 1 5 -13 5 -14 0 -19 -2 -12 -5z"/>
<path d="M3600 2920 l0 -220 93 2 92 2 -87 3 -88 4 0 209 0 209 113 4 112 3
-117 2 -118 2 0 -220z"/>
<path d="M3775 3090 c-3 -5 -28 -10 -56 -10 l-49 0 0 -70 c0 -60 2 -70 18 -69
10 0 12 3 5 6 -9 3 -13 26 -13 64 l0 59 49 0 c34 0 51 4 55 15 6 17 0 20 -9 5z"/>
<path d="M3823 3082 c10 -13 8 -14 -13 -7 -14 4 -22 4 -17 -1 4 -4 23 -8 42
-9 20 -1 33 1 29 4 -3 3 -11 6 -17 6 -7 1 -11 6 -10 11 1 6 -5 11 -12 11 -12
0 -12 -3 -2 -15z"/>
<path d="M3897 3080 c6 -8 13 -26 16 -40 l4 -25 2 26 c0 15 -7 33 -16 40 -16
12 -17 12 -6 -1z"/>
<path d="M3690 3010 l0 -50 54 0 c45 0 58 4 70 22 34 48 8 78 -70 78 l-54 0 0
-50z m92 11 c-3 -9 -1 -12 6 -7 8 5 10 2 6 -9 -7 -17 -46 -30 -68 -22 -7 3
-13 17 -13 30 0 23 3 25 37 24 28 -1 36 -5 32 -16z"/>
<path d="M3836 3037 c3 -10 9 -15 12 -12 3 3 0 11 -7 18 -10 9 -11 8 -5 -6z"/>
<path d="M3865 2999 c-4 -6 -5 -12 -2 -15 2 -3 7 2 10 11 7 17 1 20 -8 4z"/>
<path d="M3821 2966 c-8 -10 -9 -16 -1 -21 6 -4 9 -1 8 7 -2 7 3 12 10 10 8
-1 11 2 7 8 -8 13 -10 13 -24 -4z"/>
<path d="M3718 2943 c6 -2 18 -2 25 0 6 3 1 5 -13 5 -14 0 -19 -2 -12 -5z"/>
<path d="M3676 2904 c-11 -28 -7 -152 6 -160 6 -4 8 -3 4 4 -4 7 10 12 41 15
l48 3 -49 2 -48 2 4 75 c2 41 3 75 2 75 -1 0 -5 -7 -8 -16z"/>
<path d="M3810 2890 c8 -5 20 -10 25 -10 6 0 3 5 -5 10 -8 5 -19 10 -25 10 -5
0 -3 -5 5 -10z"/>
<path d="M3690 2836 l0 -56 55 0 c42 0 60 5 75 20 43 43 17 78 -67 86 l-63 7
0 -57z m111 -14 c-6 -2 -8 -8 -5 -14 4 -5 -4 -5 -16 2 -15 8 -20 8 -16 1 4 -7
-1 -11 -13 -11 -13 0 -21 7 -21 18 0 14 -2 15 -10 2 -8 -12 -10 -9 -10 12 0
23 5 27 33 30 22 3 37 -2 50 -16 12 -13 14 -22 8 -24z"/>
<path d="M3828 2789 c-14 -15 -14 -18 -2 -23 9 -3 12 -10 9 -16 -3 -5 -2 -10
2 -10 5 0 14 10 22 23 13 19 12 21 -1 10 -19 -16 -32 -5 -16 14 17 20 5 22
-14 2z"/>
<path d="M3908 2787 c-3 -19 -2 -25 4 -19 6 6 8 18 6 28 -3 14 -5 12 -10 -9z"/>
<path d="M3875 2751 c-3 -5 -2 -12 3 -15 5 -3 9 1 9 9 0 17 -3 19 -12 6z"/>
<path d="M3770 2740 c0 -5 5 -10 11 -10 5 0 7 5 4 10 -3 6 -8 10 -11 10 -2 0
-4 -4 -4 -10z"/>
<path d="M5068 3013 c7 -3 16 -2 19 1 4 3 -2 6 -13 5 -11 0 -14 -3 -6 -6z"/>
<path d="M5104 2860 c0 -85 2 -120 3 -77 2 42 2 112 0 155 -1 42 -3 7 -3 -78z"/>
<path d="M4830 2987 c0 -2 6 -10 14 -16 11 -9 16 -9 22 1 4 7 4 10 -1 6 -4 -4
-14 -3 -22 3 -7 6 -13 9 -13 6z"/>
<path d="M4905 2940 c-3 -5 -3 -15 0 -20 4 -6 1 -9 -7 -8 -9 2 -14 -11 -16
-39 -3 -35 2 -48 22 -68 32 -32 60 -32 91 0 18 17 25 35 25 62 0 56 -23 83
-70 83 -21 0 -42 -4 -45 -10z m70 -20 c-3 -6 -2 -10 3 -10 6 0 13 -7 16 -16 4
-10 2 -13 -7 -8 -9 6 -8 3 1 -8 11 -14 11 -20 0 -37 -7 -12 -16 -22 -20 -22
-36 -6 -43 -2 -43 21 0 14 -4 30 -8 37 -12 18 12 49 40 51 14 1 21 -2 18 -8z
m-55 -60 c0 -5 -4 -10 -10 -10 -5 0 -10 5 -10 10 0 6 5 10 10 10 6 0 10 -4 10
-10z"/>
<path d="M4800 2931 c0 -6 4 -13 10 -16 6 -3 7 1 4 9 -7 18 -14 21 -14 7z"/>
<path d="M4870 2925 c-6 -8 -10 -19 -8 -24 1 -6 8 1 15 14 13 28 11 31 -7 10z"/>
<path d="M4792 2885 c0 -16 2 -22 5 -12 2 9 2 23 0 30 -3 6 -5 -1 -5 -18z"/>
<path d="M4861 2854 c0 -11 3 -14 6 -6 3 7 2 16 -1 19 -3 4 -6 -2 -5 -13z"/>
<path d="M4870 2813 c0 -6 8 -17 18 -24 16 -13 16 -13 2 6 -8 11 -16 22 -17
24 -2 2 -3 0 -3 -6z"/>
<path d="M4800 2801 c0 -6 4 -13 10 -16 6 -3 7 1 4 9 -7 18 -14 21 -14 7z"/>
<path d="M4965 2770 c-16 -7 -17 -9 -3 -9 9 -1 20 4 23 9 7 11 7 11 -20 0z"/>
<path d="M4917 2739 c7 -7 15 -10 18 -7 3 3 -2 9 -12 12 -14 6 -15 5 -6 -5z"/>
<path d="M4918 2713 c7 -3 16 -2 19 1 4 3 -2 6 -13 5 -11 0 -14 -3 -6 -6z"/>
<path d="M5030 2691 c0 -6 -12 -23 -26 -37 -14 -15 -20 -24 -13 -22 18 6 54
56 46 65 -4 3 -7 1 -7 -6z"/>
<path d="M4811 2656 c-6 -7 -1 -11 15 -11 13 0 24 4 24 8 0 5 6 5 13 1 6 -4 9
-3 4 1 -11 13 -46 13 -56 1z"/>
<path d="M5051 2644 c0 -11 3 -14 6 -6 3 7 2 16 -1 19 -3 4 -6 -2 -5 -13z"/>
<path d="M4885 2630 c-3 -6 1 -7 9 -4 18 7 21 14 7 14 -6 0 -13 -4 -16 -10z"/>
<path d="M4938 2623 c6 -2 18 -2 25 0 6 3 1 5 -13 5 -14 0 -19 -2 -12 -5z"/>
<path d="M5059 2613 c-13 -16 -12 -17 4 -4 9 7 17 15 17 17 0 8 -8 3 -21 -13z"/>
<path d="M4990 2616 c0 -2 7 -7 16 -10 8 -3 12 -2 9 4 -6 10 -25 14 -25 6z"/>
<path d="M4845 2600 c3 -5 8 -10 11 -10 2 0 4 5 4 10 0 6 -5 10 -11 10 -5 0
-7 -4 -4 -10z"/>
<path d="M4955 2600 c-3 -6 1 -7 9 -4 18 7 21 14 7 14 -6 0 -13 -4 -16 -10z"/>
<path d="M4950 2580 c-23 -7 -23 -8 -3 -9 12 -1 25 4 28 9 3 6 5 10 3 9 -2 -1
-14 -5 -28 -9z"/>
<path d="M5398 3003 c6 -2 9 -10 6 -15 -4 -7 -2 -8 5 -4 13 9 5 26 -12 25 -9
0 -8 -2 1 -6z"/>
<path d="M5340 2976 c0 -2 7 -7 16 -10 8 -3 12 -2 9 4 -6 10 -25 14 -25 6z"/>
<path d="M5430 2976 c0 -2 8 -10 18 -17 15 -13 16 -12 3 4 -13 16 -21 21 -21
13z"/>
<path d="M5254 2959 c-9 -15 12 -17 30 -4 17 13 17 14 -4 12 -12 -1 -24 -5
-26 -8z"/>
<path d="M5310 2953 c-18 -6 -40 -33 -40 -47 0 -7 25 -11 60 -11 66 0 75 10
40 45 -20 20 -33 23 -60 13z m38 -34 c3 -11 1 -11 -6 -1 -5 7 -17 10 -28 6
-16 -5 -16 -4 -4 5 18 13 32 10 38 -10z"/>
<path d="M5251 2914 c0 -11 3 -14 6 -6 3 7 2 16 -1 19 -3 4 -6 -2 -5 -13z"/>
<path d="M5401 2898 c0 -9 -9 -22 -18 -27 -10 -6 -13 -10 -8 -11 21 0 37 18
32 36 -4 16 -5 16 -6 2z"/>
<path d="M5426 2893 c-6 -14 -5 -15 5 -6 7 7 10 15 7 18 -3 3 -9 -2 -12 -12z"/>
<path d="M5472 2870 c0 -14 2 -19 5 -12 2 6 2 18 0 25 -3 6 -5 1 -5 -13z"/>
<path d="M5230 2759 c0 -5 -4 -7 -10 -4 -17 10 -11 -2 8 -16 9 -7 14 -9 10 -5
-4 5 -3 15 3 23 9 9 8 13 0 13 -6 0 -11 -5 -11 -11z"/>
<path d="M5415 2760 c-3 -6 1 -7 9 -4 18 7 21 14 7 14 -6 0 -13 -4 -16 -10z"/>
<path d="M5323 2753 c9 -2 23 -2 30 0 6 3 -1 5 -18 5 -16 0 -22 -2 -12 -5z"/>
<path d="M4162 3014 c9 -3 19 -15 22 -27 4 -18 4 -18 3 3 -1 17 -8 25 -22 27
-14 1 -15 0 -3 -3z"/>
<path d="M4004 2855 c0 -88 2 -123 3 -77 2 46 2 118 0 160 -1 42 -3 5 -3 -83z"/>
<path d="M4062 2995 c-7 -8 -8 -15 -3 -15 5 0 12 -8 14 -17 3 -10 5 -3 6 15 1
36 1 37 -17 17z"/>
<path d="M4148 2953 c7 -3 16 -2 19 1 4 3 -2 6 -13 5 -11 0 -14 -3 -6 -6z"/>
<path d="M4074 2907 c-3 -8 -3 -54 -2 -103 l3 -89 5 103 c5 101 4 114 -6 89z"/>
<path d="M4033 2703 c9 -2 25 -2 35 0 9 3 1 5 -18 5 -19 0 -27 -2 -17 -5z"/>
<path d="M4260 2708 c0 -4 14 -8 30 -8 17 0 30 2 30 4 0 2 -13 6 -30 8 -16 3
-30 1 -30 -4z"/>
<path d="M2125 3166 c-11 -9 -15 -16 -9 -16 5 0 16 6 23 13 11 10 13 10 7 0
-6 -10 34 -13 183 -13 l191 0 0 -45 0 -45 -70 0 -70 0 0 -185 0 -185 -50 0
-50 0 0 185 0 185 -70 0 -70 0 0 45 c0 33 -3 43 -14 39 -17 -6 -15 -66 3 -88
10 -11 31 -16 73 -16 l59 0 -5 -175 c-3 -114 -1 -175 5 -175 6 0 7 -5 3 -12
-4 -7 -3 -8 4 -4 7 4 12 2 12 -3 0 -6 -5 -11 -12 -11 -6 0 -8 -3 -5 -6 4 -4
13 -1 22 6 9 8 27 10 48 6 25 -5 39 -1 56 13 21 18 22 27 21 148 -3 226 -4
213 30 213 36 0 81 -20 73 -33 -3 -5 -9 -3 -15 4 -7 11 -8 11 -6 -1 1 -8 -4
-26 -12 -40 -21 -37 -30 -129 -17 -174 6 -22 30 -58 53 -82 43 -45 80 -59 144
-54 19 1 43 3 52 3 9 1 14 5 12 9 -3 4 4 8 16 8 13 0 19 4 14 12 -5 7 -3 8 5
4 16 -10 41 23 33 43 -3 9 -1 12 6 7 7 -4 12 -1 12 8 0 9 7 16 17 16 9 0 14
-3 10 -6 -3 -3 8 -19 24 -36 16 -17 26 -35 22 -41 -3 -5 -1 -7 5 -4 12 8 44
-2 38 -12 -6 -9 133 -6 162 3 12 4 20 12 17 17 -4 5 1 9 9 9 8 0 21 8 28 18
21 30 38 35 33 11 -3 -13 5 -30 21 -46 21 -21 31 -24 61 -18 66 12 68 16 65
123 -4 112 7 139 51 128 26 -6 26 -6 25 -110 0 -58 5 -113 10 -122 13 -24 95
-25 118 -3 23 24 24 238 2 291 -9 20 -13 39 -10 43 4 3 -2 3 -12 -1 -15 -6
-17 -4 -11 7 4 8 4 11 0 6 -5 -4 -17 1 -28 10 -14 14 -35 18 -83 17 l-63 -1 4
49 c3 43 1 50 -21 64 -25 17 -97 15 -115 -3 -4 -4 -9 -50 -10 -101 -2 -50 -6
-87 -10 -81 -4 6 -11 9 -17 5 -6 -3 -14 -1 -18 5 -5 8 -3 9 7 4 12 -8 12 -6 0
8 -7 9 -20 17 -28 17 -8 0 -11 5 -8 10 4 6 3 9 -2 8 -4 -1 -25 4 -47 11 -23 8
-54 11 -80 7 -50 -9 -126 -51 -126 -72 0 -8 -4 -12 -10 -9 -5 3 -7 0 -4 -8 3
-8 -2 -20 -11 -27 -10 -8 -15 -9 -15 -1 0 6 5 11 11 11 6 0 4 7 -5 15 -8 8
-19 15 -25 15 -7 0 -7 8 -1 25 7 19 6 23 -5 18 -8 -3 -12 -9 -9 -14 3 -5 -2
-6 -10 -3 -9 3 -14 9 -13 12 1 4 -2 8 -7 9 -5 1 -12 7 -17 14 -5 9 -31 13 -84
13 -61 -1 -78 -4 -89 -19 -10 -14 -17 -16 -32 -7 -19 10 -19 11 1 19 16 6 20
17 21 53 0 77 -3 78 -215 80 -151 0 -190 -2 -206 -14z m1175 -78 c0 -50 4 -74
16 -85 14 -15 15 -14 12 3 -2 15 6 20 39 28 34 7 49 5 80 -11 60 -31 73 -67
73 -210 l0 -123 -50 0 -50 0 0 115 c0 109 -1 115 -24 130 -25 17 -91 14 -109
-4 -16 -16 6 -14 22 2 11 10 11 8 2 -10 -6 -12 -11 -69 -11 -127 l0 -106 -50
0 -50 0 0 228 c0 126 2 231 5 234 3 3 26 5 50 5 l45 0 0 -69z m-569 -75 c39
-23 69 -82 69 -137 l0 -46 -110 0 c-67 0 -110 -4 -110 -10 0 -5 9 -19 21 -31
17 -17 29 -20 57 -15 21 3 42 7 49 8 7 1 11 6 10 12 -2 10 42 11 71 1 19 -7
-10 -58 -48 -85 -41 -29 -133 -31 -178 -5 -59 35 -77 71 -77 155 0 62 4 80 23
108 13 17 28 32 34 32 6 0 3 -9 -7 -20 -10 -11 -13 -20 -8 -20 11 0 25 25 27
45 2 17 69 35 110 30 22 -3 52 -13 67 -22z m357 1 c12 -8 20 -20 16 -26 -4 -6
-3 -8 4 -4 12 7 52 -44 52 -68 0 -28 -81 -21 -110 9 -31 33 -72 33 -99 -1 -31
-39 -28 -89 8 -125 36 -36 64 -37 97 -4 27 27 61 32 88 12 17 -12 17 -14 -1
-45 -10 -17 -22 -32 -27 -32 -4 0 -1 11 8 25 18 28 21 45 5 45 -5 0 -7 -4 -4
-10 3 -5 -1 -19 -9 -31 -8 -12 -12 -27 -10 -34 7 -18 -51 -39 -106 -38 -107 2
-182 90 -166 198 8 51 46 111 69 109 9 -1 15 3 14 9 -3 18 65 37 108 31 22 -3
50 -12 63 -20z m-48 -109 c12 -13 28 -22 33 -18 7 4 8 -1 3 -12 -5 -15 -4 -16
8 -6 8 7 23 11 33 9 10 -1 23 1 30 5 13 8 26 -8 30 -36 3 -16 -3 -18 -47 -13
-28 3 -55 8 -60 11 -6 4 -10 -1 -10 -9 0 -9 -12 -23 -26 -32 -24 -16 -27 -16
-51 2 -18 14 -26 30 -27 52 -1 18 3 32 7 32 5 0 6 4 2 9 -6 10 21 30 41 31 6
0 21 -11 34 -25z m-405 -105 c3 -6 -1 -7 -9 -4 -18 7 -21 14 -7 14 6 0 13 -4
16 -10z m48 3 c-7 -2 -19 -2 -25 0 -7 3 -2 5 12 5 14 0 19 -2 13 -5z"/>
<path d="M3212 2943 c2 -200 6 -177 10 65 2 72 0 132 -4 132 -5 0 -7 -89 -6
-197z"/>
<path d="M3283 3085 c0 -27 2 -38 4 -22 2 15 2 37 0 50 -2 12 -4 0 -4 -28z"/>
<path d="M3282 3015 c-2 -27 13 -51 22 -36 4 6 3 11 -3 11 -5 0 -12 10 -14 23
-4 19 -4 19 -5 2z"/>
<path d="M3350 3016 c0 -2 14 -14 31 -27 24 -17 33 -19 42 -9 9 10 9 11 -1 6
-6 -4 -26 2 -42 14 -17 12 -30 19 -30 16z"/>
<path d="M3440 2940 c6 -11 13 -20 16 -20 2 0 0 9 -6 20 -6 11 -13 20 -16 20
-2 0 0 -9 6 -20z"/>
<path d="M3491 2944 c0 -11 3 -14 6 -6 3 7 2 16 -1 19 -3 4 -6 -2 -5 -13z"/>
<path d="M3464 2909 c-3 -6 -2 -15 3 -20 5 -5 9 -1 9 11 0 23 -2 24 -12 9z"/>
<path d="M3282 2813 l-2 -102 -32 -4 -33 -4 33 -1 c19 -1 35 3 38 11 3 8 3 56
1 108 l-3 94 -2 -102z"/>
<path d="M3434 2805 c0 -60 1 -84 3 -52 2 32 2 81 0 110 -2 29 -3 3 -3 -58z"/>
<path d="M3504 2805 c0 -55 1 -76 3 -47 2 29 2 74 0 100 -2 26 -3 2 -3 -53z"/>
<path d="M3458 2703 c6 -2 18 -2 25 0 6 3 1 5 -13 5 -14 0 -19 -2 -12 -5z"/>
<path d="M2678 2993 c7 -3 16 -2 19 1 4 3 -2 6 -13 5 -11 0 -14 -3 -6 -6z"/>
<path d="M2597 2932 c-28 -30 -20 -37 43 -37 63 0 74 10 44 39 -21 22 -67 20
-87 -2z"/>
<path d="M2550 2932 c0 -7 -5 -10 -12 -6 -7 4 -8 3 -4 -5 4 -6 12 -9 17 -6 5
4 9 1 9 -6 0 -7 3 -10 6 -6 3 3 1 14 -5 24 -6 11 -11 13 -11 5z"/>
<path d="M2491 2904 c0 -7 6 -25 14 -40 14 -27 15 -27 15 -6 0 12 -4 22 -9 22
-5 0 -12 8 -14 18 -3 9 -5 12 -6 6z"/>
<path d="M2782 2880 c0 -19 2 -27 5 -17 2 9 2 25 0 35 -3 9 -5 1 -5 -18z"/>
<path d="M2533 2885 c0 -8 4 -12 9 -9 5 3 6 10 3 15 -9 13 -12 11 -12 -6z"/>
<path d="M2560 2881 c0 -10 19 -25 25 -20 1 2 -3 10 -11 17 -8 7 -14 8 -14 3z"/>
<path d="M2700 2880 c-12 -7 -10 -9 7 -7 12 0 19 5 17 9 -6 10 -6 10 -24 -2z"/>
<path d="M2500 2791 c0 -6 4 -13 10 -16 6 -3 7 1 4 9 -7 18 -14 21 -14 7z"/>
<path d="M2531 2784 c6 -7 16 -11 21 -8 11 7 3 17 -18 20 -12 2 -13 -1 -3 -12z"/>
<path d="M2568 2762 c-12 -15 -11 -16 5 -3 16 12 22 9 18 -12 -1 -5 3 -6 9 -2
14 9 12 22 -4 28 -8 3 -20 -2 -28 -11z"/>
<path d="M2752 2749 c-11 -18 -16 -19 -30 -7 -15 12 -16 11 -3 -5 14 -17 15
-17 35 2 11 11 18 23 15 25 -3 3 -10 -4 -17 -15z"/>
<path d="M2633 2753 c9 -2 25 -2 35 0 9 3 1 5 -18 5 -19 0 -27 -2 -17 -5z"/>
<path d="M2678 2703 c7 -3 16 -2 19 1 4 3 -2 6 -13 5 -11 0 -14 -3 -6 -6z"/>
<path d="M2968 3013 c7 -3 16 -2 19 1 4 3 -2 6 -13 5 -11 0 -14 -3 -6 -6z"/>
<path d="M3053 3006 c0 -7 6 -13 14 -13 7 0 13 4 13 8 0 4 -6 9 -13 12 -8 3
-14 0 -14 -7z"/>
<path d="M2956 2991 c-4 -5 3 -7 14 -4 23 6 26 13 6 13 -8 0 -17 -4 -20 -9z"/>
<path d="M2881 2967 c-8 -10 -7 -14 2 -14 8 0 14 6 14 14 0 7 -1 13 -2 13 -2
0 -8 -6 -14 -13z"/>
<path d="M2913 2963 c8 -13 -17 -36 -27 -26 -4 4 -4 -1 0 -11 6 -15 4 -17 -7
-11 -8 5 -11 5 -6 -1 5 -5 14 -9 20 -9 7 0 13 -8 15 -19 3 -13 0 -16 -10 -10
-11 7 -11 5 0 -9 8 -9 10 -22 6 -28 -4 -8 -3 -9 4 -5 15 9 15 59 0 74 -9 9 -7
16 6 31 13 14 14 21 5 27 -7 4 -10 3 -6 -3z"/>
<path d="M3010 2966 c0 -2 9 -6 20 -9 11 -3 18 -1 14 4 -5 9 -34 13 -34 5z"/>
<path d="M3121 2953 c7 -12 15 -20 18 -17 3 2 -3 12 -13 22 -17 16 -18 16 -5
-5z"/>
<path d="M2939 2943 c-13 -16 -12 -17 4 -4 16 13 21 21 13 21 -2 0 -10 -8 -17
-17z"/>
<path d="M2875 2800 c-18 -19 -17 -21 19 -55 21 -19 43 -35 49 -34 8 0 8 2 -1
6 -6 2 -9 10 -6 15 4 6 3 8 -3 5 -16 -10 -53 22 -50 43 6 36 23 35 19 -2 -1
-3 6 -12 15 -20 14 -11 16 -11 8 2 -5 8 -10 21 -12 29 -4 27 -19 32 -38 11z"/>
<path d="M2920 2811 c0 -6 4 -13 10 -16 6 -3 7 1 4 9 -7 18 -14 21 -14 7z"/>
<path d="M3052 2771 c-11 -7 -10 -9 3 -14 9 -4 14 -3 10 2 -3 5 1 12 7 14 7 3
9 6 3 6 -5 0 -16 -3 -23 -8z"/>
<path d="M3025 2740 c3 -5 8 -10 11 -10 2 0 4 5 4 10 0 6 -5 10 -11 10 -5 0
-7 -4 -4 -10z"/>
<path d="M2151 3113 c2 -24 2 -25 6 -5 4 22 6 22 172 22 l167 0 2 -26 2 -26
-73 4 -72 3 3 -187 3 -188 -30 0 -31 0 0 184 c0 102 -3 186 -7 188 -5 2 -37 0
-73 -3 l-65 -7 67 2 68 1 2 -185 3 -185 38 -3 37 -3 0 185 0 185 68 3 67 3 3
33 3 32 -180 0 -181 0 1 -27z"/>
<path d="M5240 2670 c0 -5 5 -10 11 -10 5 0 7 5 4 10 -3 6 -8 10 -11 10 -2 0
-4 -4 -4 -10z"/>
<path d="M731 2291 c-7 -5 -33 -7 -57 -5 -24 1 -42 -1 -39 -6 3 -4 -8 -14 -25
-22 -16 -7 -30 -19 -30 -25 0 -7 -4 -13 -9 -13 -5 0 -7 -35 -5 -77 4 -104 6
-110 24 -109 8 1 14 -6 14 -16 -1 -14 2 -15 16 -8 13 7 20 6 22 -1 7 -20 98
-12 122 10 18 17 24 18 44 7 12 -7 20 -14 17 -17 -3 -3 3 -6 12 -7 53 -5 88
-1 108 12 20 13 25 13 35 1 15 -19 54 -19 68 -2 6 7 12 27 14 44 1 18 5 30 9
28 3 -3 4 -15 2 -28 -7 -34 20 -51 87 -53 45 -2 62 1 78 16 21 19 21 19 27 0
8 -27 43 -25 73 3 14 12 22 17 19 10 -15 -26 106 -45 132 -20 11 10 12 9 6 -3
-8 -13 -6 -13 8 -1 9 7 14 18 10 24 -7 12 14 1 38 -20 15 -13 38 -16 94 -11
11 1 26 10 35 20 11 14 19 15 30 7 12 -9 11 -10 -5 -4 -13 4 -16 3 -10 -3 25
-25 133 -34 119 -11 -3 6 3 5 15 -3 17 -10 25 -10 41 0 15 9 24 9 39 1 11 -7
26 -9 37 -4 28 11 54 13 60 3 3 -4 16 -8 29 -8 16 0 30 -10 42 -30 21 -36 76
-60 89 -39 3 5 14 4 26 -2 13 -7 18 -7 14 -1 -3 6 3 13 14 17 11 4 18 11 15
16 -4 5 -2 9 3 9 16 0 23 31 29 125 4 86 3 91 -20 113 -15 14 -27 19 -31 13
-4 -6 -15 -7 -30 -1 -28 10 -59 8 -68 -4 -4 -6 -14 -4 -25 5 -16 13 -17 12 -5
-3 11 -14 10 -18 -6 -27 -16 -8 -23 -7 -33 10 -12 17 -25 20 -82 20 -56 1 -67
3 -63 15 4 10 -5 21 -24 32 -16 9 -30 21 -30 25 0 4 -11 -4 -25 -19 -14 -15
-25 -34 -25 -42 0 -9 -8 -5 -21 12 -11 14 -27 26 -34 26 -19 0 -56 -41 -48
-53 4 -6 1 -7 -8 -2 -31 20 -143 4 -153 -21 -7 -19 -35 -18 -42 1 -4 8 -13 15
-21 15 -8 0 -11 5 -8 10 4 7 -3 8 -22 4 -15 -3 -36 -6 -45 -6 -10 1 -18 -4
-18 -9 0 -6 -6 -9 -12 -6 -7 2 -18 -3 -24 -11 -10 -14 -12 -13 -19 7 -4 14
-12 20 -21 17 -8 -3 -14 -1 -14 4 0 5 -6 8 -12 6 -38 -12 -69 -16 -64 -8 3 5
-6 7 -20 4 -14 -2 -28 -11 -31 -18 -7 -20 -21 -17 -28 5 -4 14 -13 18 -33 15
-15 -2 -38 -6 -52 -8 -14 -2 -32 0 -41 5 -12 6 -22 2 -35 -14 -19 -21 -19 -21
1 -7 18 14 19 14 7 -2 -12 -16 -47 -15 -38 1 3 4 -4 13 -16 20 -11 7 -18 8
-14 3 3 -5 -5 -7 -19 -4 -13 2 -37 0 -53 -6 -17 -6 -35 -6 -43 -1 -8 5 -10 9
-5 9 6 0 1 7 -10 16 -10 8 -14 13 -8 10 6 -3 11 1 11 8 0 8 -6 12 -14 9 -7 -3
-13 0 -13 7 0 7 -7 10 -16 6 -14 -5 -15 -4 -4 9 14 17 11 19 -9 6z m30 -62
c34 -37 36 -46 9 -54 -14 -4 -26 0 -38 13 -44 52 -102 25 -102 -46 0 -66 58
-96 102 -55 21 20 27 21 43 9 18 -13 18 -15 -12 -45 -25 -25 -40 -31 -73 -31
-34 0 -48 6 -76 34 -29 29 -34 41 -34 81 0 52 15 89 32 79 6 -4 8 -3 4 4 -10
17 35 42 77 42 31 0 45 -7 68 -31z m1112 19 c7 -21 -4 -38 -23 -38 -19 0 -34
25 -24 41 8 13 42 11 47 -3z m-103 -33 c0 -19 5 -25 21 -25 14 0 19 -5 17 -17
-2 -10 -11 -17 -21 -17 -14 2 -17 -7 -17 -44 0 -31 -5 -49 -17 -58 -10 -7 -13
-14 -6 -14 6 0 15 5 18 10 3 6 15 10 26 10 31 0 20 -34 -12 -38 -39 -5 -59 21
-59 78 0 33 -5 50 -15 54 -8 3 -15 12 -15 20 0 7 7 16 15 20 8 3 15 15 15 26
0 15 7 20 25 20 20 0 25 -5 25 -25z m-90 -5 c0 -5 -5 -10 -11 -10 -5 0 -7 5
-4 10 3 6 8 10 11 10 2 0 4 -4 4 -10z m220 -4 c0 -3 -4 -8 -10 -11 -5 -3 -10
-1 -10 4 0 6 5 11 10 11 6 0 10 -2 10 -4z m-967 -26 c36 -28 45 -81 21 -118
-10 -15 -18 -29 -17 -32 1 -3 -18 -6 -41 -8 -59 -4 -87 20 -92 78 -5 47 5 67
41 88 30 17 59 14 88 -8z m197 0 c5 -8 10 -48 10 -87 0 -66 -2 -73 -20 -73
-18 0 -20 7 -20 59 0 65 -15 89 -43 68 -11 -8 -17 -31 -19 -67 -3 -48 -6 -55
-25 -58 -22 -3 -23 -1 -23 81 0 46 2 86 5 88 2 3 31 5 65 4 43 0 64 -4 70 -15z
m89 6 c8 -10 9 -16 1 -21 -5 -3 -10 -1 -10 4 0 6 -4 11 -8 11 -5 0 -10 -31
-11 -70 -1 -48 2 -70 10 -70 8 0 10 18 7 59 -2 33 -1 58 3 56 9 -6 36 26 29
34 -3 3 7 7 22 9 17 2 34 -4 48 -18 18 -18 20 -31 18 -88 -3 -61 -5 -67 -25
-70 -22 -3 -23 0 -23 63 l0 66 -27 -3 c-27 -3 -28 -6 -31 -66 -3 -58 -5 -63
-24 -60 -19 3 -21 10 -22 86 0 46 1 85 3 88 9 8 29 4 40 -10z m266 -11 c15
-14 25 -36 25 -52 0 -28 0 -28 -60 -25 -54 3 -59 2 -53 -14 4 -11 3 -15 -4
-11 -7 4 -10 0 -9 -10 2 -10 7 -16 12 -13 5 3 8 9 6 13 -1 5 6 6 17 2 10 -3
31 0 45 6 19 9 30 9 37 2 17 -17 -25 -53 -62 -53 -43 0 -69 17 -85 56 -36 86
67 164 131 99z m181 0 c26 -26 25 -45 -2 -45 -9 0 -22 7 -31 15 -9 10 -23 13
-35 9 -13 -4 -18 -2 -14 4 10 17 -11 23 -24 7 -11 -14 -7 -19 13 -16 4 1 5
-10 1 -23 -12 -50 36 -87 66 -51 7 8 18 15 26 15 24 0 26 -21 3 -46 -28 -30
-77 -32 -113 -3 -22 17 -26 28 -26 69 0 41 4 52 26 69 36 29 79 27 110 -4z
m202 -68 c3 -82 2 -87 -18 -87 -18 0 -20 6 -20 83 0 46 3 87 7 91 19 19 28 -8
31 -87z m173 72 c5 -7 9 -42 9 -76 0 -35 0 -66 0 -70 1 -5 -8 -9 -20 -11 -18
-3 -20 2 -20 57 0 48 -4 62 -18 70 -29 16 -42 -6 -42 -72 0 -55 -1 -58 -22
-55 -21 3 -23 9 -26 77 -2 41 -1 79 1 86 7 17 126 12 138 -6z m197 -71 c4
-102 -1 -121 -34 -143 -43 -28 -124 -2 -124 41 0 18 20 18 56 -1 25 -13 30
-13 46 2 25 22 22 34 -5 24 -25 -10 -79 8 -92 29 -4 6 -7 31 -7 53 1 61 34 87
104 82 l53 -3 3 -84z m-1538 70 c0 -6 3 -8 7 -5 3 4 17 -3 30 -15 20 -19 25
-20 33 -8 7 11 9 10 7 -7 -1 -17 -5 -20 -18 -12 -19 9 -44 -12 -31 -26 4 -5 1
-5 -5 -1 -7 4 -13 3 -13 -2 0 -5 -10 -8 -22 -7 -27 2 -41 37 -28 70 10 25 40
35 40 13z m940 -63 c8 5 11 4 7 -2 -6 -10 -47 -25 -47 -18 0 2 3 11 6 20 5 12
9 13 14 5 5 -7 13 -9 20 -5z m157 -17 c-3 -8 -6 -5 -6 6 -1 11 2 17 5 13 3 -3
4 -12 1 -19z m188 -46 c4 -44 -12 -41 -17 3 -2 20 0 34 5 32 5 -1 11 -17 12
-35z m-732 13 c-3 -9 -8 -14 -10 -11 -3 3 -2 9 2 15 9 16 15 13 8 -4z"/>
<path d="M673 2239 c9 -5 21 -8 26 -5 14 9 41 -5 41 -21 0 -8 5 -11 12 -7 18
12 -30 44 -66 44 -26 -1 -28 -2 -13 -11z"/>
<path d="M607 2180 c3 -11 7 -20 8 -20 1 0 5 9 8 20 3 12 0 20 -8 20 -8 0 -11
-8 -8 -20z"/>
<path d="M592 2130 c0 -14 2 -19 5 -12 2 6 2 18 0 25 -3 6 -5 1 -5 -13z"/>
<path d="M622 2063 c15 -15 31 -22 38 -18 8 5 4 12 -12 23 -37 27 -54 23 -26
-5z m19 0 c13 -16 12 -17 -3 -4 -10 7 -18 15 -18 17 0 8 8 3 21 -13z"/>
<path d="M730 2065 c-18 -21 -3 -32 16 -13 10 9 12 18 6 22 -5 3 -15 -1 -22
-9z"/>
<path d="M1843 2235 c0 -8 4 -12 9 -9 5 3 6 10 3 15 -9 13 -12 11 -12 -6z"/>
<path d="M1733 2210 c-6 -14 -9 -32 -7 -40 1 -8 3 -25 3 -37 1 -13 6 -23 12
-23 5 0 7 5 4 10 -4 6 1 22 9 35 17 27 9 33 -14 13 -12 -11 -12 -10 -1 4 7 9
11 27 9 40 l-5 23 -10 -25z"/>
<path d="M1730 2080 c0 -11 2 -20 4 -20 2 0 6 9 9 20 3 11 1 20 -4 20 -5 0 -9
-9 -9 -20z"/>
<path d="M906 2171 c-4 -5 -1 -13 5 -16 6 -4 14 -16 18 -28 l8 -21 5 22 c4 13
2 20 -5 19 -6 -1 -11 3 -12 10 0 17 -12 26 -19 14z"/>
<path d="M825 2150 c-3 -5 -2 -10 4 -10 5 0 13 5 16 10 3 6 2 10 -4 10 -5 0
-13 -4 -16 -10z"/>
<path d="M851 2132 c-5 -10 -7 -29 -4 -42 4 -15 2 -21 -5 -16 -6 3 -13 2 -16
-3 -4 -5 -2 -12 3 -15 5 -4 12 -2 16 4 3 5 16 8 29 4 29 -7 48 16 44 53 -2 22
-9 29 -30 31 -18 2 -30 -3 -37 -16z m54 -11 c3 -6 -3 -15 -14 -20 -18 -10 -21
-3 -12 27 2 6 20 1 26 -7z"/>
<path d="M810 2106 c0 -31 6 -34 13 -6 3 11 1 23 -4 26 -5 3 -9 -6 -9 -20z"/>
<path d="M950 2101 c0 -7 -5 -9 -12 -5 -7 5 -9 2 -5 -9 3 -9 0 -18 -9 -21 -16
-6 -19 -26 -3 -26 5 0 7 5 4 10 -3 6 -2 10 4 10 13 0 35 39 27 48 -3 3 -6 0
-6 -7z"/>
<path d="M1083 2183 c9 -2 15 -8 12 -13 -3 -5 0 -12 6 -16 8 -4 9 -3 5 4 -4 7
-1 12 6 12 9 0 9 3 -2 10 -8 5 -22 9 -30 9 -11 -1 -10 -3 3 -6z"/>
<path d="M1013 2160 c2 -26 9 -25 33 2 15 19 16 20 2 9 -12 -9 -18 -10 -18 -2
0 6 -4 11 -9 11 -6 0 -9 -9 -8 -20z"/>
<path d="M1119 2148 c-6 -50 -5 -108 2 -108 5 0 9 27 9 60 0 33 -2 60 -5 60
-3 0 -6 -6 -6 -12z"/>
<path d="M1258 2183 c7 -3 16 -2 19 1 4 3 -2 6 -13 5 -11 0 -14 -3 -6 -6z"/>
<path d="M1282 2173 c-8 -3 -10 -9 -3 -17 5 -6 11 -25 14 -41 2 -17 3 -11 2
12 -2 27 1 40 8 36 6 -3 7 -1 3 5 -4 7 -8 12 -9 11 -1 0 -8 -3 -15 -6z"/>
<path d="M1290 2050 c0 -5 5 -10 11 -10 5 0 7 5 4 10 -3 6 -8 10 -11 10 -2 0
-4 -4 -4 -10z"/>
<path d="M1389 2176 c-1 -3 -2 -11 -3 -16 0 -6 -6 -14 -11 -18 -6 -4 -12 -20
-13 -37 -1 -26 0 -28 11 -13 8 10 32 18 63 21 l49 3 -59 2 c-52 2 -57 4 -45
18 8 10 15 12 17 5 5 -15 62 -14 62 2 0 9 2 9 9 -1 7 -11 9 -11 14 1 3 9 -1
21 -9 28 -12 10 -15 10 -12 -1 2 -9 -8 -14 -29 -16 -18 -1 -30 2 -28 6 3 5 1
11 -5 15 -5 3 -11 4 -11 1z"/>
<path d="M1491 2124 c0 -11 3 -14 6 -6 3 7 2 16 -1 19 -3 4 -6 -2 -5 -13z"/>
<path d="M1465 2050 c-3 -6 1 -7 9 -4 18 7 21 14 7 14 -6 0 -13 -4 -16 -10z"/>
<path d="M1608 2183 c7 -3 16 -2 19 1 4 3 -2 6 -13 5 -11 0 -14 -3 -6 -6z"/>
<path d="M1636 2172 c-3 -5 1 -9 9 -9 8 0 12 4 9 9 -3 4 -7 8 -9 8 -2 0 -6 -4
-9 -8z"/>
<path d="M1540 2110 c0 -18 6 -33 15 -36 8 -4 13 -10 10 -14 -3 -5 -1 -11 4
-14 5 -4 8 2 6 11 -2 10 -4 22 -4 26 -1 5 -6 5 -11 2 -7 -4 -9 2 -5 18 4 14 2
28 -4 31 -7 5 -11 -4 -11 -24z"/>
<path d="M1651 2057 c-13 -21 -12 -21 5 -5 10 10 16 20 13 22 -3 3 -11 -5 -18
-17z"/>
<path d="M1840 2110 c0 -40 4 -70 10 -70 6 0 10 30 10 70 0 40 -4 70 -10 70
-6 0 -10 -30 -10 -70z"/>
<path d="M1913 2159 c-1 -12 -1 -20 0 -18 2 2 9 12 16 22 11 14 11 17 -1 17
-7 0 -14 -10 -15 -21z"/>
<path d="M1945 2160 c-10 -11 -16 -22 -14 -24 2 -2 12 7 22 20 22 29 17 32 -8
4z"/>
<path d="M2006 2171 c-4 -5 -2 -12 3 -15 5 -4 12 -2 15 3 4 5 2 12 -3 15 -5 4
-12 2 -15 -3z"/>
<path d="M2026 2134 c-10 -25 -7 -94 4 -94 6 0 10 25 10 55 0 57 -3 66 -14 39z"/>
<path d="M1920 2055 c-10 -12 -10 -15 4 -15 9 0 16 7 16 15 0 8 -2 15 -4 15
-2 0 -9 -7 -16 -15z"/>
<path d="M2180 2173 c0 -6 8 -17 18 -24 16 -13 16 -13 2 6 -8 11 -16 22 -17
24 -2 2 -3 0 -3 -6z"/>
<path d="M2221 2140 c-2 -25 -3 -51 -2 -59 2 -7 -2 -10 -8 -7 -5 4 -12 2 -16
-4 -3 -5 -11 -10 -16 -10 -5 0 -3 10 4 23 23 37 10 67 -28 67 -37 0 -46 -47
-14 -73 13 -11 23 -24 22 -28 -5 -14 14 -10 27 6 15 18 25 11 25 -18 0 -28
-40 -61 -65 -54 -11 3 -22 2 -24 -2 -3 -4 13 -8 34 -9 58 -4 72 23 67 129 -2
52 -4 67 -6 39z m-57 -25 c3 -8 1 -15 -4 -15 -6 0 -10 7 -10 15 0 8 2 15 4 15
2 0 6 -7 10 -15z"/>
<path d="M2090 2111 c0 -18 4 -30 9 -27 5 4 12 0 15 -6 3 -7 3 1 -1 17 -8 44
-23 55 -23 16z"/>
<path d="M2110 2055 c0 -7 30 -13 34 -7 3 4 -4 9 -15 9 -10 1 -19 0 -19 -2z"/>
<path d="M2540 2290 c13 -9 13 -10 0 -11 -8 -1 -18 -1 -22 0 -4 0 -10 -10 -14
-23 -3 -14 -12 -27 -21 -30 -8 -3 -12 -10 -8 -15 3 -5 1 -13 -5 -16 -6 -4 -18
10 -27 34 -14 36 -25 47 -36 39 -2 -2 -10 2 -18 8 -19 16 -59 0 -60 -23 -1
-10 -3 -63 -4 -118 -1 -75 2 -104 13 -117 19 -23 47 -23 70 0 10 10 24 16 32
14 8 -3 10 0 5 8 -6 9 -3 9 13 1 17 -9 23 -8 30 5 7 13 11 11 21 -13 l12 -29
107 0 c87 -1 109 2 119 15 6 9 9 19 7 23 -3 5 -1 8 4 8 5 0 14 -11 20 -25 8
-18 18 -24 37 -23 14 1 25 5 25 8 0 3 13 6 29 5 16 0 27 -3 25 -7 -3 -4 27 -7
66 -7 38 1 70 5 70 9 0 5 9 8 20 7 11 -1 20 -5 20 -9 0 -4 20 -8 44 -8 74 0
119 58 86 110 -5 8 -5 19 0 25 10 12 8 65 -3 58 -4 -2 -15 3 -24 12 -10 11
-27 15 -44 13 -16 -3 -31 0 -33 6 -3 6 -10 3 -17 -8 -9 -15 -13 -16 -20 -5 -5
8 -9 25 -9 39 0 15 -3 21 -10 14 -5 -5 -11 -61 -12 -124 l-3 -114 -57 -3 c-74
-3 -98 15 -105 79 -5 41 -2 50 21 73 27 27 81 33 81 8 0 -7 5 -17 10 -22 7 -7
9 8 7 44 -4 53 -3 55 22 55 14 0 26 5 26 10 0 11 -30 13 -54 4 -9 -3 -16 -15
-16 -25 0 -18 -4 -21 -32 -23 -7 0 -27 -11 -45 -23 -34 -25 -48 -29 -38 -13 4
6 1 9 -7 8 -7 -2 -12 3 -10 10 1 6 -5 13 -13 13 -8 1 -21 2 -27 3 -7 1 -19 -3
-27 -8 -9 -7 -13 -7 -9 -1 4 7 -7 9 -31 7 -34 -3 -37 -2 -39 24 -2 29 -32 71
-32 46 0 -10 -5 -10 -21 -1 -12 6 -19 7 -15 1 3 -5 -1 -13 -10 -16 -24 -9 -36
-7 -28 6 4 6 3 8 -4 4 -6 -3 -13 -2 -17 4 -3 5 -12 10 -18 10 -7 0 -6 -4 3
-10z m120 -50 c-7 -29 -37 -39 -46 -16 -10 25 1 41 28 41 22 0 24 -3 18 -25z
m-228 -45 c28 -57 31 -67 18 -76 -11 -8 -12 -12 -2 -16 6 -2 10 -8 8 -12 -3
-4 1 -8 9 -8 8 0 12 4 9 9 -3 4 -1 8 5 8 8 0 24 32 26 52 0 4 6 13 13 20 6 6
12 20 12 29 0 10 4 20 9 23 4 3 6 -37 3 -89 -3 -54 -1 -95 4 -95 5 0 10 45 11
100 2 77 -1 100 -11 100 -10 0 -40 -53 -50 -90 -5 -16 -28 -51 -32 -47 -3 2
11 39 30 81 31 67 39 77 58 74 22 -3 23 -6 23 -118 0 -112 -1 -115 -22 -118
-22 -3 -23 0 -23 70 l0 73 -25 -52 c-14 -30 -31 -53 -39 -53 -9 0 -28 24 -43
55 l-28 54 0 -72 c0 -67 -2 -72 -22 -75 -23 -3 -23 -2 -23 117 l0 121 25 0
c21 0 31 -11 57 -65z m201 -1 c4 -1 12 -2 17 -3 6 0 10 -36 10 -85 0 -84 0
-84 -27 -88 l-28 -4 0 97 c0 62 4 95 10 91 6 -4 13 -7 18 -8z m95 -6 c8 -8 8
-17 1 -31 -9 -15 -8 -18 2 -12 9 6 11 3 6 -9 -4 -10 -7 -40 -7 -67 0 -42 -3
-49 -20 -49 -18 0 -20 7 -20 83 0 96 8 115 38 85z m92 -8 c16 -16 20 -33 20
-91 0 -67 -1 -70 -22 -67 -21 3 -23 9 -26 66 -2 48 0 62 9 56 7 -4 9 -3 6 3
-3 5 -19 8 -35 5 -25 -3 -28 -1 -26 20 1 12 3 24 3 26 4 11 55 -2 71 -18z
m335 8 c14 -6 25 -19 25 -30 0 -19 -25 -25 -35 -8 -3 6 -15 10 -25 10 -10 0
-20 6 -23 13 -3 9 -9 8 -22 -5 -20 -19 -15 -42 12 -57 13 -6 24 -6 34 1 11 8
11 9 -3 5 -9 -3 -19 1 -22 9 -3 9 -10 12 -16 9 -5 -3 -10 0 -10 8 0 18 27 18
34 0 3 -7 14 -13 23 -13 30 0 63 -29 63 -55 0 -46 -81 -73 -122 -41 -40 30
-11 61 31 34 21 -13 56 -4 46 12 -3 5 -16 10 -28 10 -33 0 -67 28 -67 55 0 26
33 55 62 55 9 0 29 -5 43 -12z m-385 -78 c0 -5 -5 -10 -11 -10 -5 0 -7 5 -4
10 3 6 8 10 11 10 2 0 4 -4 4 -10z"/>
<path d="M2622 2239 c2 -6 8 -10 13 -10 5 0 11 4 13 10 2 6 -4 11 -13 11 -9 0
-15 -5 -13 -11z"/>
<path d="M2360 2145 c0 -58 3 -105 8 -105 4 0 6 44 6 98 -1 62 2 100 10 104 7
5 5 8 -6 8 -16 0 -18 -12 -18 -105z"/>
<path d="M2394 2222 c3 -5 1 -12 -5 -14 -7 -2 -10 -9 -8 -16 3 -8 9 -5 16 7 9
15 10 22 1 27 -6 4 -8 3 -4 -4z"/>
<path d="M2400 2190 c0 -5 5 -10 11 -10 5 0 7 -5 3 -12 -4 -7 -3 -8 4 -4 6 4
9 13 5 21 -6 17 -23 20 -23 5z"/>
<path d="M2427 2135 c3 -8 9 -12 14 -9 12 7 11 11 -5 17 -10 4 -13 1 -9 -8z"/>
<path d="M2621 2113 c0 -40 2 -73 7 -73 4 0 6 24 4 52 -5 89 -9 97 -11 21z"/>
<path d="M2701 2110 c2 -91 14 -91 14 0 0 38 -3 70 -8 70 -4 0 -7 -31 -6 -70z"/>
<path d="M2818 2090 c-1 -28 0 -50 5 -50 4 0 7 23 7 50 0 65 -7 65 -12 0z"/>
<path d="M3153 2097 c9 -8 17 -19 17 -25 0 -6 -8 -16 -17 -21 -10 -6 -13 -11
-7 -11 14 0 34 21 34 37 0 7 -10 17 -22 23 -21 10 -21 10 -5 -3z"/>
<path d="M3062 2058 c2 -6 10 -13 16 -14 7 -1 8 0 2 3 -5 2 -8 9 -4 14 3 5 0
9 -6 9 -7 0 -10 -5 -8 -12z"/>
<path d="M3110 2040 c-9 -6 -10 -10 -3 -10 6 0 15 5 18 10 8 12 4 12 -15 0z"/>
<path d="M3783 2289 c-6 -6 -37 -9 -74 -7 -56 3 -67 1 -86 -20 -13 -13 -23
-26 -23 -31 0 -16 41 -50 55 -45 16 7 18 2 15 -67 -2 -60 22 -120 47 -116 10
1 24 6 31 10 6 5 16 6 21 3 5 -4 7 4 3 16 -5 19 -4 20 10 7 9 -7 14 -17 12
-20 -2 -4 3 -10 12 -13 10 -4 13 -2 8 7 -6 9 -4 9 7 1 25 -20 102 -14 120 8
15 19 16 19 33 3 10 -10 31 -19 48 -21 17 -2 33 -6 36 -9 3 -2 14 1 26 8 26
14 56 17 56 6 0 -18 42 -8 65 15 23 23 25 23 30 5 8 -24 50 -35 70 -19 10 9
15 9 15 1 0 -16 49 -13 66 4 13 12 20 13 37 3 34 -19 56 -19 82 -2 23 15 25
15 25 0 0 -12 10 -16 44 -16 25 0 47 4 51 10 3 5 13 6 22 3 10 -4 14 -2 9 5
-3 6 -1 14 5 18 7 4 9 3 5 -4 -15 -24 46 -39 78 -19 21 13 56 12 56 -2 0 -7 8
-8 80 -11 36 -2 50 -8 72 -33 20 -21 40 -32 72 -37 29 -4 43 -3 39 3 -4 7 1 8
13 3 10 -4 16 -4 12 -1 -3 4 1 14 10 24 14 14 19 14 30 4 7 -7 11 -17 8 -22
-3 -5 1 -12 10 -15 10 -4 13 -2 8 7 -5 9 -4 9 7 0 16 -16 33 -17 23 -2 -4 7 1
7 16 -1 12 -7 20 -7 16 -2 -3 6 6 20 21 32 16 12 22 18 14 15 -10 -6 -9 -1 2
16 9 13 17 29 17 34 1 6 7 24 14 40 7 17 20 51 28 76 14 42 14 47 -1 66 -20
26 -49 17 -79 -24 -16 -21 -21 -24 -22 -10 0 9 -5 17 -11 17 -5 0 -8 4 -4 9 8
14 -21 20 -90 19 -33 0 -64 1 -70 2 -16 4 -75 -12 -71 -19 2 -3 -2 -12 -10
-18 -8 -8 -15 -9 -19 -3 -3 6 -3 10 2 10 4 0 -6 9 -23 19 -29 17 -52 19 -109
7 -11 -3 -24 -5 -30 -5 -5 -1 -4 -5 3 -10 11 -6 10 -10 -1 -19 -11 -9 -13 -3
-12 33 1 25 -2 45 -7 45 -5 0 -7 4 -4 9 3 5 -6 12 -21 16 -33 8 -56 -13 -59
-56 -3 -34 -14 -51 -21 -31 -3 6 -11 12 -19 12 -8 0 -14 4 -14 8 0 13 -74 6
-78 -6 -2 -6 -9 -9 -17 -6 -7 3 -16 0 -21 -7 -5 -8 -3 -10 7 -4 10 6 11 5 3
-4 -11 -12 -47 -4 -39 9 5 9 -38 29 -56 26 -8 -1 -20 -6 -28 -10 -9 -6 -12 -5
-8 1 11 17 -41 8 -62 -11 -12 -11 -24 -16 -28 -13 -3 4 0 7 8 7 8 1 -1 8 -20
16 -19 8 -41 12 -48 10 -8 -4 -13 3 -13 18 0 22 -11 30 -59 41 -17 4 -40 -23
-41 -47 0 -10 -5 -18 -11 -18 -5 0 -7 -5 -4 -10 4 -6 11 -7 17 -4 7 5 8 2 4
-5 -6 -9 -12 -9 -25 3 -18 16 -94 29 -85 15 3 -5 -7 -9 -21 -9 -15 0 -24 -4
-20 -10 3 -5 -3 -10 -15 -10 -12 0 -18 5 -15 10 3 6 -3 10 -14 10 -11 0 -23 5
-26 11 -4 6 -22 8 -41 6 -20 -3 -31 -1 -28 5 3 5 -2 18 -13 30 -10 11 -17 23
-15 26 6 12 -14 12 -25 1z m32 -54 c0 -15 -8 -21 -32 -23 l-32 -3 -3 -92 c-3
-87 -4 -92 -25 -95 -22 -3 -23 -1 -23 92 l0 96 -35 0 c-31 0 -35 3 -35 25 l0
26 93 -3 c84 -3 92 -5 92 -23z m377 -20 c2 -25 -1 -50 -6 -55 -17 -17 7 -11
26 7 15 13 23 14 46 4 25 -11 26 -10 7 4 -12 10 -29 14 -43 10 -15 -4 -21 -2
-17 5 10 17 54 11 75 -10 16 -16 20 -33 20 -90 0 -68 -1 -70 -25 -70 -23 0
-24 4 -27 62 -2 52 -6 63 -22 66 -26 5 -36 -15 -36 -75 0 -46 -3 -53 -20 -53
-12 0 -20 7 -21 18 0 9 -1 63 -2 119 -2 99 -1 103 19 103 19 0 23 -7 26 -45z
m548 -76 c0 -119 0 -120 -22 -117 -22 3 -23 6 -23 120 0 116 0 118 23 118 22
0 22 -2 22 -121z m-807 30 c9 -12 17 -33 17 -48 0 -27 -1 -27 -59 -23 -49 4
-59 1 -65 -14 -4 -10 -4 -15 0 -12 4 4 16 2 27 -3 14 -8 26 -8 43 1 12 7 30
10 40 6 29 -11 -21 -56 -62 -56 -80 0 -116 99 -58 157 21 21 32 24 62 19 20
-3 45 -15 55 -27z m175 4 l26 -26 -22 -10 c-17 -8 -27 -6 -43 9 -21 19 -21 18
-40 -5 -13 -16 -17 -31 -12 -49 4 -16 2 -23 -5 -18 -17 11 -23 -11 -6 -25 12
-10 15 -10 12 2 -2 10 5 13 24 11 17 -2 31 4 40 17 13 18 17 19 34 7 19 -14
18 -15 -5 -40 -32 -34 -80 -35 -118 -2 -23 20 -28 32 -27 67 3 81 86 118 142
62z m355 9 c11 -9 16 -35 19 -91 3 -76 2 -77 -19 -73 -20 4 -23 11 -23 52 0
64 -7 80 -36 80 -26 0 -26 -1 -28 -75 -1 -44 -4 -50 -24 -53 -21 -3 -22 -1
-22 85 l0 89 58 -1 c33 0 66 -6 75 -13z m181 -8 c54 -55 20 -154 -54 -154 -43
0 -90 47 -90 90 0 22 9 41 29 61 38 37 79 38 115 3z m259 6 c65 -52 32 -160
-49 -160 -50 0 -84 37 -84 90 0 77 74 116 133 70z m215 -66 c3 -93 -16 -143
-60 -158 -35 -12 -93 13 -103 44 -5 16 -12 19 -28 15 -17 -5 -19 -4 -7 4 16
11 49 5 89 -15 16 -9 30 -10 42 -3 11 6 20 5 24 -1 8 -14 -20 -23 -50 -18 -14
3 -25 1 -25 -3 0 -14 66 -10 77 4 15 19 -9 57 -29 46 -36 -20 -98 29 -98 79 0
28 25 78 42 85 7 3 38 4 68 3 l55 -3 3 -79z m70 54 c19 -40 28 -93 13 -84 -6
4 -9 12 -6 17 4 5 2 9 -4 9 -6 0 -8 7 -5 15 4 8 4 15 1 15 -14 0 -13 -31 4
-66 25 -54 24 -71 -8 -88 -27 -14 -27 -15 -4 -13 34 2 56 39 40 66 -10 15 -10
25 -2 43 7 13 17 41 24 63 17 52 23 58 47 51 18 -6 17 -12 -22 -110 -47 -118
-59 -136 -92 -136 -29 0 -34 37 -6 47 30 12 30 24 -4 106 -24 60 -30 83 -21
89 18 11 31 4 45 -24z m-1393 12 c-3 -5 -12 -10 -18 -10 -7 0 -6 4 3 10 19 12
23 12 15 0z m269 -56 c22 -8 20 -21 -4 -27 -11 -3 -20 -1 -20 4 0 5 6 9 13 9
8 0 7 4 -3 10 -17 11 -10 13 14 4z m350 -48 c1 -20 -3 -36 -9 -36 -5 0 -10 11
-10 25 0 14 3 25 7 25 4 0 5 8 1 18 -3 9 -3 14 1 10 5 -4 9 -23 10 -42z m744
-57 c-20 -13 -31 7 -16 30 l13 21 8 -22 c5 -14 3 -24 -5 -29z"/>
<path d="M3640 2241 c0 -10 19 -25 25 -20 1 2 -3 10 -11 17 -8 7 -14 8 -14 3z"/>
<path d="M3670 2244 c37 -8 88 -9 84 -2 -3 4 -26 7 -52 7 -26 -1 -40 -3 -32
-5z"/>
<path d="M3783 2235 c0 -8 4 -12 9 -9 4 3 8 9 8 15 0 5 -4 9 -8 9 -5 0 -9 -7
-9 -15z"/>
<path d="M3698 2223 c7 -3 16 -2 19 1 4 3 -2 6 -13 5 -11 0 -14 -3 -6 -6z"/>
<path d="M3710 2125 c0 -47 3 -85 8 -85 4 0 7 38 7 85 0 47 -3 85 -7 85 -5 0
-8 -38 -8 -85z"/>
<path d="M4163 2145 c1 -58 5 -105 9 -105 4 0 7 47 6 105 0 58 -4 105 -9 105
-4 0 -7 -47 -6 -105z"/>
<path d="M4715 2145 c0 -58 3 -105 8 -105 4 0 7 47 7 105 0 58 -3 105 -7 105
-5 0 -8 -47 -8 -105z"/>
<path d="M3868 2183 c12 -2 22 -9 22 -14 0 -5 5 -8 11 -6 6 1 13 -8 15 -20 3
-20 -1 -22 -54 -25 -48 -3 -57 -6 -60 -23 -3 -19 -2 -19 11 -2 11 12 29 17 71
17 52 0 70 10 46 25 -6 4 -8 10 -5 15 8 12 -36 40 -60 39 -18 -2 -17 -2 3 -6z"/>
<path d="M3820 2165 c-7 -8 -9 -15 -4 -15 5 0 3 -4 -4 -9 -8 -5 7 -8 38 -10
27 -1 50 3 50 8 0 15 -30 22 -51 11 -15 -9 -19 -7 -19 5 0 10 5 13 12 9 7 -4
8 -3 4 4 -9 15 -11 15 -26 -3z"/>
<path d="M3915 2060 c3 -5 8 -10 11 -10 2 0 4 5 4 10 0 6 -5 10 -11 10 -5 0
-7 -4 -4 -10z"/>
<path d="M3834 2046 c11 -9 24 -16 30 -16 12 0 7 5 -24 19 -24 11 -24 11 -6
-3z"/>
<path d="M4040 2180 c0 -5 7 -7 15 -4 8 4 15 8 15 10 0 2 -7 4 -15 4 -8 0 -15
-4 -15 -10z"/>
<path d="M4001 2166 c-7 -8 -8 -17 -3 -20 6 -3 15 1 21 8 7 8 8 17 3 20 -6 3
-15 -1 -21 -8z"/>
<path d="M4076 2172 c-3 -6 1 -15 8 -21 8 -7 17 -8 20 -3 3 6 -1 15 -8 21 -8
7 -17 8 -20 3z"/>
<path d="M3983 2110 c0 -16 4 -27 9 -24 4 3 8 14 8 24 0 10 -4 21 -8 24 -5 3
-9 -8 -9 -24z"/>
<path d="M4091 2057 c-13 -21 -12 -21 5 -5 10 10 16 20 13 22 -3 3 -11 -5 -18
-17z"/>
<path d="M4038 2038 c5 -5 16 -8 23 -6 8 3 3 7 -10 11 -17 4 -21 3 -13 -5z"/>
<path d="M4380 2170 c-28 -24 -31 -25 -24 -5 4 8 1 15 -5 15 -6 0 -11 -16 -11
-35 0 -19 5 -35 11 -35 5 0 7 5 4 10 -6 10 41 55 56 55 4 0 11 3 15 8 17 17
-25 5 -46 -13z"/>
<path d="M4435 2170 c-6 -9 0 -14 16 -12 3 1 5 -26 4 -58 -1 -33 2 -60 6 -60
15 0 10 116 -5 129 -10 8 -16 9 -21 1z"/>
<path d="M4342 2070 c-1 -16 1 -30 6 -30 4 0 9 14 10 30 1 17 -1 30 -6 30 -4
0 -9 -13 -10 -30z"/>
<path d="M4578 2183 c7 -3 16 -2 19 1 4 3 -2 6 -13 5 -11 0 -14 -3 -6 -6z"/>
<path d="M4612 2173 c2 -5 12 -25 23 -46 l19 -37 -22 -16 c-23 -16 -29 -34
-12 -34 6 0 10 6 10 14 0 8 7 16 15 20 21 8 19 43 -5 68 -10 12 -17 25 -14 30
3 4 0 8 -6 8 -7 0 -10 -3 -8 -7z"/>
<path d="M4530 2135 c0 -14 2 -25 4 -25 2 0 6 11 8 25 3 14 1 25 -3 25 -5 0
-9 -11 -9 -25z"/>
<path d="M4567 2149 c-19 -11 -24 -64 -7 -74 6 -4 8 -11 4 -16 -3 -5 -10 -6
-16 -3 -6 4 -8 2 -4 -4 7 -12 56 9 76 33 26 31 -18 83 -53 64z m31 -33 c-10
-7 -14 -17 -10 -21 4 -5 1 -5 -7 0 -12 7 -11 10 4 22 24 17 36 17 13 -1z"/>
<path d="M4526 2083 c-6 -14 -5 -15 5 -6 7 7 10 15 7 18 -3 3 -9 -2 -12 -12z"/>
<path d="M4809 2172 c-14 -12 -18 -21 -11 -26 6 -3 16 2 21 13 6 11 21 22 33
24 22 4 22 4 2 6 -12 0 -32 -7 -45 -17z"/>
<path d="M4875 2170 c-3 -6 1 -7 9 -4 18 7 21 14 7 14 -6 0 -13 -4 -16 -10z"/>
<path d="M4825 2136 c-30 -45 16 -101 53 -64 17 17 15 54 -4 72 -21 22 -31 20
-49 -8z m45 -30 c0 -3 -4 -8 -10 -11 -5 -3 -10 -1 -10 4 0 6 5 11 10 11 6 0
10 -2 10 -4z"/>
<path d="M4896 2153 c5 -4 10 -24 10 -43 -1 -30 -6 -38 -35 -52 -33 -15 -35
-15 -51 5 -11 13 -19 16 -24 9 -3 -6 -2 -13 4 -17 5 -3 10 -3 10 1 0 4 6 -1
14 -11 8 -11 19 -16 30 -12 9 4 18 5 20 4 2 -1 12 6 23 15 24 22 25 99 2 106
-9 2 -10 0 -3 -5z"/>
<path d="M4780 2116 c0 -22 3 -27 11 -19 8 8 8 16 0 30 -9 16 -10 14 -11 -11z"/>
<path d="M5005 2181 c-10 -17 12 -21 25 -6 10 12 10 15 -3 15 -9 0 -18 -4 -22
-9z"/>
<path d="M5070 2160 c14 -13 18 -43 10 -75 -4 -18 0 -45 8 -45 4 0 7 31 7 70
0 42 -4 65 -9 60 -5 -5 -15 -6 -21 -2 -6 4 -4 0 5 -8z"/>
<path d="M4976 2153 c-4 -9 -1 -21 5 -27 9 -8 10 -7 4 3 -4 7 -2 16 5 21 8 5
8 10 2 14 -5 3 -13 -2 -16 -11z"/>
<path d="M5006 2135 c-10 -26 -7 -42 10 -59 25 -25 56 -3 52 37 -2 26 -8 33
-29 35 -17 2 -29 -3 -33 -13z m37 -11 c-7 -3 -9 -12 -6 -21 4 -11 2 -14 -5 -9
-18 11 -14 36 6 35 9 0 12 -3 5 -5z"/>
<path d="M4976 2093 c-6 -14 -5 -15 5 -6 7 7 10 15 7 18 -3 3 -9 -2 -12 -12z"/>
<path d="M4997 2048 c6 -10 45 -10 60 0 7 5 -4 8 -26 7 -22 0 -37 -3 -34 -7z"/>
<path d="M4970 2001 c0 -5 5 -13 10 -16 6 -3 10 -2 10 4 0 5 -4 13 -10 16 -5
3 -10 2 -10 -4z"/>
<path d="M5150 2170 c0 -5 4 -10 10 -10 5 0 7 -8 4 -17 -5 -14 -4 -15 4 -4 11
15 5 41 -9 41 -5 0 -9 -4 -9 -10z"/>
<path d="M5265 2171 c-3 -5 0 -13 6 -17 7 -4 9 -3 5 4 -3 5 0 13 6 15 9 4 10
6 1 6 -6 1 -14 -3 -18 -8z"/>
<path d="M5250 2140 c0 -5 5 -10 11 -10 5 0 7 5 4 10 -3 6 -8 10 -11 10 -2 0
-4 -4 -4 -10z"/>
<path d="M5239 2106 c-1 -9 -2 -22 -3 -28 -1 -7 -5 -16 -11 -20 -5 -4 -6 -10
-2 -14 10 -10 16 -2 27 35 5 18 5 33 -1 36 -5 4 -10 -1 -10 -9z"/>
<path d="M3265 2236 c-26 -39 -36 -85 -20 -93 7 -5 13 -15 13 -23 -5 -79 29
-122 93 -118 22 1 43 6 46 12 4 5 1 6 -7 1 -9 -6 -11 -4 -6 4 6 10 12 9 24 -2
27 -23 48 -26 89 -15 21 7 42 11 46 10 5 -2 5 3 1 9 -5 8 -2 10 9 6 11 -4 15
-1 12 13 -2 11 0 22 5 25 25 15 -17 136 -50 143 -8 2 -17 7 -20 10 -9 12 -74
8 -88 -5 -15 -14 -45 -6 -35 10 3 6 1 7 -5 3 -6 -4 -17 2 -24 14 -18 28 -63
26 -83 -4z m67 -18 c2 -15 10 -23 23 -23 30 0 27 -39 -3 -43 -20 -3 -23 -8
-20 -45 3 -35 7 -43 26 -45 35 -5 24 -36 -14 -40 -41 -4 -54 14 -55 77 -1 36
-6 51 -15 51 -8 0 -14 11 -14 25 0 15 5 24 13 23 6 -2 13 4 13 12 1 8 2 18 3
23 0 4 10 7 20 7 13 0 21 -8 23 -22z m194 -41 c21 -19 27 -32 27 -67 0 -113
-152 -120 -170 -8 -5 32 -1 41 25 68 37 37 80 40 118 7z"/>
<path d="M3303 2210 c-1 -11 2 -22 8 -25 5 -4 9 -11 9 -18 0 -8 -3 -8 -12 1
-7 7 -19 12 -27 12 -12 0 -11 -3 3 -13 12 -9 17 -27 18 -65 0 -29 4 -55 9 -58
5 -3 9 -2 8 3 -1 4 -1 32 0 61 1 45 4 54 24 62 l22 9 -22 0 c-18 1 -23 7 -23
26 0 29 -15 34 -17 5z"/>
<path d="M3422 2160 c-7 -11 -9 -20 -4 -20 4 0 13 9 20 20 7 11 9 20 4 20 -4
0 -13 -9 -20 -20z"/>
<path d="M3500 2170 c12 -8 12 -10 -3 -16 -10 -3 -21 -4 -24 0 -10 9 -43 -25
-43 -44 0 -9 6 -25 14 -35 12 -17 17 -18 41 -7 24 11 27 17 22 47 -3 19 -3 34
1 34 19 -3 23 2 12 16 -7 8 -18 15 -24 15 -6 0 -4 -4 4 -10z m-20 -74 c0 -3
-7 -3 -15 0 -8 4 -15 13 -15 21 0 12 2 12 15 -1 8 -8 15 -17 15 -20z"/>
<path d="M3526 2128 c-3 -7 -6 -22 -9 -33 -3 -11 -8 -29 -12 -40 -5 -16 -3
-15 7 3 8 12 16 20 19 18 3 -3 5 10 5 29 0 36 -4 44 -10 23z"/>
<path d="M2993 2145 c1 -58 5 -105 9 -105 4 0 7 47 5 105 -1 58 -5 105 -9 105
-5 0 -7 -47 -5 -105z"/>
<path d="M1026 2232 c-3 -5 1 -9 9 -9 8 0 12 4 9 9 -3 4 -7 8 -9 8 -2 0 -6 -4
-9 -8z"/>
<path d="M2896 2171 c-4 -5 -2 -12 3 -15 5 -4 12 -2 15 3 4 5 2 12 -3 15 -5 4
-12 2 -15 -3z"/>
<path d="M2921 2147 c-16 -16 -13 -63 4 -77 30 -25 63 9 51 54 -6 26 -38 40
-55 23z m36 -42 c0 -8 -4 -15 -8 -15 -11 0 -20 16 -12 24 11 11 20 7 20 -9z"/>
<path d="M2874 2136 c-3 -8 -4 -23 -1 -33 3 -12 5 -8 6 10 1 19 5 26 13 21 7
-4 8 -3 4 4 -10 16 -15 15 -22 -2z"/>
<path d="M2887 2076 c-3 -8 -2 -18 3 -21 13 -8 20 9 11 24 -6 10 -10 9 -14 -3z"/>
<path d="M2966 2055 c-16 -12 -17 -15 -4 -15 9 0 18 7 22 15 7 18 6 18 -18 0z"/>
<path d="M2917 2039 c7 -7 15 -10 18 -7 3 3 -2 9 -12 12 -14 6 -15 5 -6 -5z"/>
</g>
</svg>
